<?xml version="1.0" encoding="utf-8"?>
<!-- Generator: Adobe Illustrator 15.1.0, SVG Export Plug-In . SVG Version: 6.00 Build 0)  -->
<svg version="1.2" baseProfile="tiny" xmlns="http://www.w3.org/2000/svg" xmlns:xlink="http://www.w3.org/1999/xlink" x="0px"
	 y="0px" width="500px" height="500px" viewBox="0 0 500 500" overflow="inherit" xml:space="preserve">
<g id="gridareas">
	<polygon id="grid-item-1" fill="#828282" points="299.99,100.04 299.93,99.98 250,99.98 250,150.02 	"/>
	<polygon id="grid-item-2" fill="#828282" points="399.9,199.95 349.98,150.02 349.98,199.95 	"/>
	<polygon id="grid-item-3" fill="#828282" points="300.05,99.98 299.93,99.98 299.99,100.04 	"/>
	<polygon id="grid-item-4" fill="#828282" points="349.98,150.02 349.98,99.98 300.05,99.98 300.05,100.1 	"/>
	<polygon id="grid-item-5" fill="#828282" points="349.98,199.95 349.98,150.02 300.05,199.95 	"/>
	<polygon id="grid-item-6" fill="#828282" points="300.05,150.02 349.98,150.02 300.05,100.1 	"/>
	<polygon id="grid-item-7" fill="#828282" points="300.05,199.95 349.98,150.02 300.05,150.02 	"/>
	<polygon id="grid-item-8" fill="#828282" points="300.05,100.1 300.05,99.98 299.99,100.04 	"/>
	<polygon id="grid-item-9" fill="#828282" points="99.98,99.98 99.98,150.02 150.02,150.02 	"/>
	<polygon id="grid-item-10" fill="#828282" points="150.02,99.98 99.98,99.98 150.02,150.02 	"/>
	<polygon id="grid-item-11" fill="#828282" points="150.02,150.02 99.98,150.02 99.98,199.95 100.1,199.95 	"/>
	<polygon id="grid-item-12" fill="#828282" points="100.1,199.95 99.98,199.95 100.04,200.01 	"/>
	<polygon id="grid-item-13" fill="#828282" points="250,150.02 250,99.98 200.07,99.98 200.01,100.04 	"/>
	<polygon id="grid-item-14" fill="#828282" points="199.95,100.1 199.95,99.98 150.02,99.98 150.02,150.02 	"/>
	<polygon id="grid-item-15" fill="#828282" points="200.01,100.04 199.95,99.98 199.95,100.1 	"/>
	<polygon id="grid-item-16" fill="#828282" points="200.07,99.98 199.95,99.98 200.01,100.04 	"/>
	<polygon id="grid-item-17" fill="#828282" points="300.05,399.9 349.98,349.98 300.05,349.98 	"/>
	<polygon id="grid-item-18" fill="#828282" points="349.98,250 399.96,200.01 399.9,199.95 349.98,199.95 	"/>
	<polygon id="grid-item-19" fill="#828282" points="300.05,349.98 349.98,349.98 300.05,300.05 	"/>
	<polygon id="grid-item-20" fill="#828282" points="250,349.98 299.99,399.96 300.05,399.9 300.05,349.98 	"/>
	<polygon id="grid-item-21" fill="#828282" points="200.07,300.05 250,349.98 250,300.05 	"/>
	<polygon id="grid-item-22" fill="#828282" points="250,300.05 250,349.98 299.93,300.05 	"/>
	<polygon id="grid-item-23" fill="#828282" points="300.05,300.05 299.93,300.05 250,349.98 300.05,349.98 	"/>
	<polygon id="grid-item-24" fill="#828282" points="300.05,300.05 349.98,349.98 349.98,300.05 	"/>
	<polygon id="grid-item-25" fill="#828282" points="300.05,299.93 349.98,250 300.05,250 	"/>
	<polygon id="grid-item-26" fill="#828282" points="199.95,300.05 199.95,349.98 250,349.98 200.07,300.05 	"/>
	<polygon id="grid-item-27" fill="#828282" points="300.05,199.95 300.05,200.07 349.98,250 349.98,199.95 	"/>
	<polygon id="grid-item-28" fill="#828282" points="349.98,349.98 399.9,300.05 349.98,300.05 	"/>
	<polygon id="grid-item-29" fill="#828282" points="300.05,300.05 349.98,300.05 349.98,250 300.05,299.93 	"/>
	<polygon id="grid-item-30" fill="#828282" points="399.9,300.05 399.96,299.99 349.98,250 349.98,300.05 	"/>
	<polygon id="grid-item-31" fill="#828282" points="300.05,250 349.98,250 300.05,200.07 	"/>
	<polygon id="grid-item-32" fill="#828282" points="399.9,300.05 400.02,300.05 399.96,299.99 	"/>
	<polygon id="grid-item-33" fill="#828282" points="400.02,300.05 400.02,299.93 399.96,299.99 	"/>
	<polygon id="grid-item-34" fill="#828282" points="349.98,250 400.02,250 400.02,200.07 399.96,200.01 	"/>
	<polygon id="grid-item-35" fill="#828282" points="399.96,299.99 400.02,299.93 400.02,250 349.98,250 	"/>
	<polygon id="grid-item-36" fill="#828282" points="349.98,349.98 400.02,349.98 400.02,300.05 399.9,300.05 	"/>
	<polygon id="grid-item-37" fill="#828282" points="349.98,400.02 400.02,400.02 349.98,349.98 	"/>
	<polygon id="grid-item-38" fill="#828282" points="400.02,400.02 400.02,349.98 349.98,349.98 	"/>
	<polygon id="grid-item-39" fill="#828282" points="400.02,99.98 350.1,50.05 349.98,50.05 349.98,99.98 	"/>
	<polygon id="grid-item-40" fill="#828282" points="300.05,399.9 300.05,400.02 349.98,400.02 349.98,349.98 	"/>
	<polygon id="grid-item-41" fill="#828282" points="349.98,150.02 400.02,99.98 349.98,99.98 	"/>
	<polygon id="grid-item-42" fill="#828282" points="349.98,99.98 349.98,50.05 300.05,99.98 	"/>
	<polygon id="grid-item-43" fill="#828282" points="399.9,199.95 400.02,199.95 400.02,150.02 349.98,150.02 	"/>
	<polygon id="grid-item-44" fill="#828282" points="399.96,200.01 400.02,199.95 399.9,199.95 	"/>
	<polygon id="grid-item-45" fill="#828282" points="400.02,200.07 400.02,199.95 399.96,200.01 	"/>
	<polygon id="grid-item-46" fill="#828282" points="400.02,150.02 400.02,99.98 349.98,150.02 	"/>
	<polygon id="grid-item-47" fill="#828282" points="99.98,349.98 99.98,400.02 150.02,349.98 	"/>
	<polygon id="grid-item-48" fill="#828282" points="100.1,300.05 99.98,300.05 99.98,349.98 150.02,349.98 	"/>
	<polygon id="grid-item-49" fill="#828282" points="99.98,199.95 99.98,200.07 100.04,200.01 	"/>
	<polygon id="grid-item-50" fill="#828282" points="99.98,400.02 150.02,400.02 150.02,349.98 	"/>
	<polygon id="grid-item-51" fill="#828282" points="100.04,299.99 99.98,300.05 100.1,300.05 	"/>
	<polygon id="grid-item-52" fill="#828282" points="99.98,299.93 99.98,300.05 100.04,299.99 	"/>
	<polygon id="grid-item-53" fill="#828282" points="100.04,200.01 99.98,200.07 99.98,250 150.02,250 	"/>
	<polygon id="grid-item-54" fill="#828282" points="150.02,250 99.98,250 99.98,299.93 100.04,299.99 	"/>
	<polygon id="grid-item-55" fill="#828282" points="200.01,399.96 200.07,400.02 250,400.02 250,349.98 	"/>
	<polygon id="grid-item-56" fill="#828282" points="299.99,399.96 300.05,400.02 300.05,399.9 	"/>
	<polygon id="grid-item-57" fill="#828282" points="250,349.98 250,400.02 299.93,400.02 299.99,399.96 	"/>
	<polygon id="grid-item-58" fill="#828282" points="299.93,400.02 300.05,400.02 299.99,399.96 	"/>
	<polygon id="grid-item-59" fill="#828282" points="150.02,349.98 150.02,400.02 199.95,400.02 199.95,399.9 	"/>
	<polygon id="grid-item-60" fill="#828282" points="199.95,399.9 199.95,400.02 200.01,399.96 	"/>
	<polygon id="grid-item-61" fill="#828282" points="199.95,400.02 200.07,400.02 200.01,399.96 	"/>
	<polygon id="grid-item-62" fill="#828282" points="299.99,200.01 299.93,199.95 250,199.95 250,250 	"/>
	<polygon id="grid-item-63" fill="#828282" points="150.02,49.93 149.96,49.99 150.02,50.05 	"/>
	<polygon id="grid-item-64" fill="#828282" points="149.96,49.99 149.9,50.05 150.02,50.05 	"/>
	<polygon id="grid-item-65" fill="#828282" points="49.99,49.99 50.05,50.05 50.05,49.93 	"/>
	<polygon id="grid-item-66" fill="#828282" points="349.98,49.93 349.98,50.05 350.04,49.99 	"/>
	<polygon id="grid-item-67" fill="#828282" points="49.93,150.02 50.05,150.02 49.99,149.96 	"/>
	<polygon id="grid-item-68" fill="#828282" points="49.99,149.96 50.05,150.02 50.05,149.9 	"/>
	<polygon id="grid-item-69" fill="#828282" points="49.93,50.05 50.05,50.05 49.99,49.99 	"/>
	<polygon id="grid-item-70" fill="#828282" points="300.05,100.1 299.99,100.04 250,150.02 300.05,150.02 	"/>
	<polygon id="grid-item-71" fill="#828282" points="250,250 250,199.95 200.07,199.95 200.01,200.01 	"/>
	<polygon id="grid-item-72" fill="#828282" points="200.07,199.95 199.95,199.95 200.01,200.01 	"/>
	<polygon id="grid-item-73" fill="#828282" points="199.95,199.95 199.95,200.07 200.01,200.01 	"/>
	<polygon id="grid-item-74" fill="#828282" points="400.02,50.05 350.1,50.05 400.02,99.98 	"/>
	<polygon id="grid-item-75" fill="#828282" points="200.01,200.01 199.95,200.07 199.95,250 250,250 	"/>
	<polygon id="grid-item-76" fill="#828282" points="349.98,50.05 300.05,50.05 300.05,99.98 	"/>
	<polygon id="grid-item-77" fill="#828282" points="49.99,350.04 50.05,350.1 50.05,349.98 	"/>
	<polygon id="grid-item-78" fill="#828282" points="350.04,49.99 349.98,50.05 350.1,50.05 	"/>
	<polygon id="grid-item-79" fill="#828282" points="450.07,349.98 449.95,349.98 450.01,350.04 	"/>
	<polygon id="grid-item-80" fill="#828282" points="450.01,450.01 449.95,449.95 449.95,450.07 	"/>
	<polygon id="grid-item-81" fill="#828282" points="450.07,449.95 449.95,449.95 450.01,450.01 	"/>
	<polygon id="grid-item-82" fill="#828282" points="450.01,350.04 449.95,349.98 449.95,350.1 	"/>
	<polygon id="grid-item-83" fill="#828282" points="450.07,50.05 450.01,49.99 449.95,50.05 	"/>
	<polygon id="grid-item-84" fill="#828282" points="199.95,399.9 200.01,399.96 250,349.98 199.95,349.98 	"/>
	<polygon id="grid-item-85" fill="#828282" points="450.01,149.96 449.95,149.9 449.95,150.02 	"/>
	<polygon id="grid-item-86" fill="#828282" points="49.93,349.98 49.99,350.04 50.05,349.98 	"/>
	<polygon id="grid-item-87" fill="#828282" points="50.05,450.07 50.05,449.95 49.99,450.01 	"/>
	<polygon id="grid-item-88" fill="#828282" points="349.98,450.07 350.04,450.01 349.98,449.95 	"/>
	<polygon id="grid-item-89" fill="#828282" points="149.96,450.01 150.02,449.95 149.9,449.95 	"/>
	<polygon id="grid-item-90" fill="#828282" points="49.99,450.01 50.05,449.95 49.93,449.95 	"/>
	<polygon id="grid-item-91" fill="#828282" points="150.02,450.07 150.02,449.95 149.96,450.01 	"/>
	<polygon id="grid-item-92" fill="#828282" points="350.04,450.01 350.1,449.95 349.98,449.95 	"/>
	<polygon id="grid-item-93" fill="#828282" points="450.07,150.02 450.01,149.96 449.95,150.02 	"/>
	<polygon id="grid-item-94" fill="#828282" points="199.95,200.07 150.02,250 199.95,250 	"/>
	<polygon id="grid-item-95" fill="#828282" points="100.1,199.95 100.04,200.01 150.02,250 150.02,199.95 	"/>
	<polygon id="grid-item-96" fill="#828282" points="199.95,199.95 150.02,199.95 150.02,250 199.95,200.07 	"/>
	<polygon id="grid-item-97" fill="#828282" points="150.02,150.02 100.1,199.95 150.02,199.95 	"/>
	<polygon id="grid-item-98" fill="#828282" points="199.95,199.95 150.02,150.02 150.02,199.95 	"/>
	<polygon id="grid-item-99" fill="#828282" points="199.95,100.1 150.02,150.02 199.95,150.02 	"/>
	<polygon id="grid-item-100" fill="#828282" points="199.95,150.02 150.02,150.02 199.95,199.95 	"/>
	<polygon id="grid-item-101" fill="#828282" points="199.95,300.05 150.02,349.98 199.95,349.98 	"/>
	<polygon id="grid-item-102" fill="#828282" points="250,150.02 200.01,100.04 199.95,100.1 199.95,150.02 	"/>
	<polygon id="grid-item-103" fill="#828282" points="150.02,300.05 150.02,349.98 199.95,300.05 	"/>
	<polygon id="grid-item-104" fill="#828282" points="150.02,349.98 199.95,399.9 199.95,349.98 	"/>
	<polygon id="grid-item-105" fill="#828282" points="150.02,250 100.04,299.99 100.1,300.05 150.02,300.05 	"/>
	<polygon id="grid-item-106" fill="#828282" points="199.95,300.05 199.95,299.93 150.02,250 150.02,300.05 	"/>
	<polygon id="grid-item-107" fill="#828282" points="100.1,300.05 150.02,349.98 150.02,300.05 	"/>
	<polygon id="grid-item-108" fill="#828282" points="199.95,250 150.02,250 199.95,299.93 	"/>
	<polygon id="grid-item-109" fill="#828282" points="199.95,300.05 200.07,300.05 200.01,299.99 	"/>
	<polygon id="grid-item-110" fill="#828282" points="299.93,300.05 300.05,300.05 299.99,299.99 	"/>
	<polygon id="grid-item-111" fill="#828282" points="299.99,299.99 300.05,299.93 300.05,250 250,250 	"/>
	<polygon id="grid-item-112" fill="#828282" points="250,250 250,300.05 299.93,300.05 299.99,299.99 	"/>
	<polygon id="grid-item-113" fill="#828282" points="300.05,300.05 300.05,299.93 299.99,299.99 	"/>
	<polygon id="grid-item-114" fill="#828282" points="199.95,299.93 199.95,300.05 200.01,299.99 	"/>
	<polygon id="grid-item-115" fill="#828282" points="250,250 199.95,250 199.95,299.93 200.01,299.99 	"/>
	<polygon id="grid-item-116" fill="#828282" points="200.01,299.99 200.07,300.05 250,300.05 250,250 	"/>
	<polygon id="grid-item-117" fill="#828282" points="299.99,200.01 300.05,199.95 299.93,199.95 	"/>
	<polygon id="grid-item-118" fill="#828282" points="300.05,199.95 300.05,150.02 250,150.02 299.93,199.95 	"/>
	<polygon id="grid-item-119" fill="#828282" points="250,250 300.05,250 300.05,200.07 299.99,200.01 	"/>
	<polygon id="grid-item-120" fill="#828282" points="250,199.95 250,150.02 200.07,199.95 	"/>
	<polygon id="grid-item-121" fill="#828282" points="299.93,199.95 250,150.02 250,199.95 	"/>
	<polygon id="grid-item-122" fill="#828282" points="300.05,200.07 300.05,199.95 299.99,200.01 	"/>
	<polygon id="grid-item-123" fill="#828282" points="199.95,199.95 200.07,199.95 250,150.02 199.95,150.02 	"/>
	<polygon id="grid-item-124" fill="#828282" points="449.95,350.1 449.95,400.02 500,400.02 450.01,350.04 	"/>
	<polygon id="grid-item-125" fill="#828282" points="50.05,349.98 50.05,300.05 0,300.05 49.93,349.98 	"/>
	<polygon id="grid-item-126" fill="#828282" points="0,300.05 0,349.98 49.93,349.98 	"/>
	<polygon id="grid-item-127" fill="#828282" points="49.93,349.98 0,349.98 0,400.02 49.99,350.04 	"/>
	<polygon id="grid-item-128" fill="#828282" points="149.96,450.01 99.98,500 150.02,500 150.02,450.07 	"/>
	<polygon id="grid-item-129" fill="#828282" points="50.05,199.95 0,199.95 50.05,250 	"/>
	<polygon id="grid-item-130" fill="#828282" points="50.05,150.02 49.93,150.02 0,199.95 50.05,199.95 	"/>
	<polygon id="grid-item-131" fill="#828282" points="0,199.95 0,250 50.05,250 	"/>
	<polygon id="grid-item-132" fill="#828282" points="50.05,350.1 49.99,350.04 0,400.02 50.05,400.02 	"/>
	<polygon id="grid-item-133" fill="#828282" points="50.05,500 99.98,500 50.05,450.07 	"/>
	<polygon id="grid-item-134" fill="#828282" points="50.05,449.95 50.05,400.02 0,400.02 49.93,449.95 	"/>
	<polygon id="grid-item-135" fill="#828282" points="149.9,449.95 99.98,449.95 99.98,500 149.96,450.01 	"/>
	<polygon id="grid-item-136" fill="#828282" points="50.05,449.95 50.05,450.07 99.98,500 99.98,449.95 	"/>
	<polygon id="grid-item-137" fill="#828282" points="49.99,450.01 0,500 50.05,500 50.05,450.07 	"/>
	<polygon id="grid-item-138" fill="#828282" points="0,400.02 0,449.95 49.93,449.95 	"/>
	<polygon id="grid-item-139" fill="#828282" points="49.93,449.95 0,449.95 0,500 49.99,450.01 	"/>
	<polygon id="grid-item-140" fill="#828282" points="149.9,50.05 149.96,49.99 99.98,0 99.98,50.05 	"/>
	<polygon id="grid-item-141" fill="#828282" points="150.02,49.93 150.02,0 99.98,0 149.96,49.99 	"/>
	<polygon id="grid-item-142" fill="#828282" points="50.05,50.05 99.98,50.05 99.98,0 50.05,49.93 	"/>
	<polygon id="grid-item-143" fill="#828282" points="0,150.02 0,199.95 49.93,150.02 	"/>
	<polygon id="grid-item-144" fill="#828282" points="250,50.05 199.95,0 199.95,50.05 	"/>
	<polygon id="grid-item-145" fill="#828282" points="199.95,0 150.02,0 150.02,49.93 	"/>
	<polygon id="grid-item-146" fill="#828282" points="150.02,50.05 199.95,50.05 199.95,0 150.02,49.93 	"/>
	<polygon id="grid-item-147" fill="#828282" points="99.98,0 50.05,0 50.05,49.93 	"/>
	<polygon id="grid-item-148" fill="#828282" points="50.05,49.93 50.05,0 0,0 49.99,49.99 	"/>
	<polygon id="grid-item-149" fill="#828282" points="50.05,149.9 50.05,99.98 0,99.98 49.99,149.96 	"/>
	<polygon id="grid-item-150" fill="#828282" points="49.99,149.96 0,99.98 0,150.02 49.93,150.02 	"/>
	<polygon id="grid-item-151" fill="#828282" points="50.05,50.05 49.93,50.05 0,99.98 50.05,99.98 	"/>
	<polygon id="grid-item-152" fill="#828282" points="49.99,49.99 0,0 0,50.05 49.93,50.05 	"/>
	<polygon id="grid-item-153" fill="#828282" points="0,50.05 0,99.98 49.93,50.05 	"/>
	<polygon id="grid-item-154" fill="#828282" points="150.02,500 199.95,500 150.02,450.07 	"/>
	<polygon id="grid-item-155" fill="#828282" points="500,300.05 500,250 449.95,250 	"/>
	<polygon id="grid-item-156" fill="#828282" points="500,250 500,199.95 449.95,250 	"/>
	<polygon id="grid-item-157" fill="#828282" points="449.95,300.05 500,300.05 449.95,250 	"/>
	<polygon id="grid-item-158" fill="#828282" points="500,349.98 500,300.05 450.07,349.98 	"/>
	<polygon id="grid-item-159" fill="#828282" points="449.95,349.98 450.07,349.98 500,300.05 449.95,300.05 	"/>
	<polygon id="grid-item-160" fill="#828282" points="450.01,350.04 500,400.02 500,349.98 450.07,349.98 	"/>
	<polygon id="grid-item-161" fill="#828282" points="449.95,250 500,199.95 449.95,199.95 	"/>
	<polygon id="grid-item-162" fill="#828282" points="449.95,50.05 449.95,99.98 500,99.98 450.07,50.05 	"/>
	<polygon id="grid-item-163" fill="#828282" points="500,99.98 500,50.05 450.07,50.05 	"/>
	<polygon id="grid-item-164" fill="#828282" points="450.01,49.99 450.07,50.05 500,50.05 500,0 	"/>
	<polygon id="grid-item-165" fill="#828282" points="449.95,449.95 450.07,449.95 500,400.02 449.95,400.02 	"/>
	<polygon id="grid-item-166" fill="#828282" points="449.95,150.02 449.95,199.95 500,199.95 450.07,150.02 	"/>
	<polygon id="grid-item-167" fill="#828282" points="449.95,149.9 450.01,149.96 500,99.98 449.95,99.98 	"/>
	<polygon id="grid-item-168" fill="#828282" points="500,199.95 500,150.02 450.07,150.02 	"/>
	<polygon id="grid-item-169" fill="#828282" points="450.07,150.02 500,150.02 500,99.98 450.01,149.96 	"/>
	<polygon id="grid-item-170" fill="#828282" points="150.02,449.95 150.02,450.07 199.95,500 199.95,449.95 	"/>
	<polygon id="grid-item-171" fill="#828282" points="250,500 300.05,500 250,449.95 	"/>
	<polygon id="grid-item-172" fill="#828282" points="250,449.95 300.05,500 300.05,449.95 	"/>
	<polygon id="grid-item-173" fill="#828282" points="300.05,99.98 300.05,50.05 250,50.05 299.93,99.98 	"/>
	<polygon id="grid-item-174" fill="#828282" points="349.98,449.95 300.05,449.95 300.05,500 349.98,450.07 	"/>
	<polygon id="grid-item-175" fill="#828282" points="250,0 199.95,0 250,50.05 	"/>
	<polygon id="grid-item-176" fill="#828282" points="199.95,500 250,500 250,449.95 	"/>
	<polygon id="grid-item-177" fill="#828282" points="199.95,449.95 199.95,500 250,449.95 	"/>
	<polygon id="grid-item-178" fill="#828282" points="450.01,450.01 500,500 500,449.95 450.07,449.95 	"/>
	<polygon id="grid-item-179" fill="#828282" points="400.02,500 449.95,500 449.95,450.07 	"/>
	<polygon id="grid-item-180" fill="#828282" points="449.95,450.07 449.95,500 500,500 450.01,450.01 	"/>
	<polygon id="grid-item-181" fill="#828282" points="349.98,450.07 349.98,500 400.02,500 350.04,450.01 	"/>
	<polygon id="grid-item-182" fill="#828282" points="500,449.95 500,400.02 450.07,449.95 	"/>
	<polygon id="grid-item-183" fill="#828282" points="350.1,449.95 350.04,450.01 400.02,500 400.02,449.95 	"/>
	<polygon id="grid-item-184" fill="#828282" points="449.95,449.95 400.02,449.95 400.02,500 449.95,450.07 	"/>
	<polygon id="grid-item-185" fill="#828282" points="300.05,500 349.98,500 349.98,450.07 	"/>
	<polygon id="grid-item-186" fill="#828282" points="99.98,349.98 50.05,349.98 50.05,350.1 99.98,400.02 	"/>
	<polygon id="grid-item-187" fill="#828282" points="50.05,350.1 50.05,400.02 99.98,400.02 	"/>
	<polygon id="grid-item-188" fill="#828282" points="99.98,300.05 50.05,349.98 99.98,349.98 	"/>
	<polygon id="grid-item-189" fill="#828282" points="99.98,200.07 50.05,250 99.98,250 	"/>
	<polygon id="grid-item-190" fill="#828282" points="50.05,400.02 50.05,449.95 99.98,400.02 	"/>
	<polygon id="grid-item-191" fill="#828282" points="99.98,299.93 50.05,250 50.05,300.05 99.98,300.05 	"/>
	<polygon id="grid-item-192" fill="#828282" points="50.05,300.05 50.05,349.98 99.98,300.05 	"/>
	<polygon id="grid-item-193" fill="#828282" points="99.98,250 50.05,250 99.98,299.93 	"/>
	<polygon id="grid-item-194" fill="#828282" points="300.05,0 250,0 250,50.05 	"/>
	<polygon id="grid-item-195" fill="#828282" points="50.05,449.95 99.98,449.95 99.98,400.02 	"/>
	<polygon id="grid-item-196" fill="#828282" points="150.02,449.95 199.95,449.95 199.95,400.02 	"/>
	<polygon id="grid-item-197" fill="#828282" points="250,400.02 250,449.95 299.93,400.02 	"/>
	<polygon id="grid-item-198" fill="#828282" points="99.98,449.95 149.9,449.95 99.98,400.02 	"/>
	<polygon id="grid-item-199" fill="#828282" points="150.02,400.02 150.02,449.95 199.95,400.02 	"/>
	<polygon id="grid-item-200" fill="#828282" points="99.98,400.02 149.9,449.95 150.02,449.95 150.02,400.02 	"/>
	<polygon id="grid-item-201" fill="#828282" points="200.07,400.02 250,449.95 250,400.02 	"/>
	<polygon id="grid-item-202" fill="#828282" points="199.95,99.98 150.02,50.05 150.02,99.98 	"/>
	<polygon id="grid-item-203" fill="#828282" points="199.95,50.05 150.02,50.05 199.95,99.98 	"/>
	<polygon id="grid-item-204" fill="#828282" points="150.02,99.98 150.02,50.05 149.9,50.05 99.98,99.98 	"/>
	<polygon id="grid-item-205" fill="#828282" points="250,99.98 250,50.05 200.07,99.98 	"/>
	<polygon id="grid-item-206" fill="#828282" points="299.93,99.98 250,50.05 250,99.98 	"/>
	<polygon id="grid-item-207" fill="#828282" points="200.07,99.98 250,50.05 199.95,50.05 199.95,99.98 	"/>
	<polygon id="grid-item-208" fill="#828282" points="149.9,50.05 99.98,50.05 99.98,99.98 	"/>
	<polygon id="grid-item-209" fill="#828282" points="99.98,99.98 50.05,149.9 50.05,150.02 99.98,150.02 	"/>
	<polygon id="grid-item-210" fill="#828282" points="99.98,199.95 50.05,199.95 50.05,250 99.98,200.07 	"/>
	<polygon id="grid-item-211" fill="#828282" points="99.98,150.02 50.05,150.02 99.98,199.95 	"/>
	<polygon id="grid-item-212" fill="#828282" points="50.05,150.02 50.05,199.95 99.98,199.95 	"/>
	<polygon id="grid-item-213" fill="#828282" points="99.98,50.05 50.05,50.05 99.98,99.98 	"/>
	<polygon id="grid-item-214" fill="#828282" points="50.05,99.98 50.05,149.9 99.98,99.98 	"/>
	<polygon id="grid-item-215" fill="#828282" points="50.05,50.05 50.05,99.98 99.98,99.98 	"/>
	<polygon id="grid-item-216" fill="#828282" points="199.95,400.02 199.95,449.95 250,449.95 200.07,400.02 	"/>
	<polygon id="grid-item-217" fill="#828282" points="400.02,99.98 449.95,50.05 400.02,50.05 	"/>
	<polygon id="grid-item-218" fill="#828282" points="449.95,50.05 450.01,49.99 449.95,49.93 	"/>
	<polygon id="grid-item-219" fill="#828282" points="449.95,99.98 449.95,50.05 400.02,99.98 	"/>
	<polygon id="grid-item-220" fill="#828282" points="299.93,400.02 250,449.95 300.05,449.95 300.05,400.02 	"/>
	<polygon id="grid-item-221" fill="#828282" points="450.01,49.99 500,0 449.95,0 449.95,49.93 	"/>
	<polygon id="grid-item-222" fill="#828282" points="400.02,150.02 449.95,150.02 449.95,149.9 400.02,99.98 	"/>
	<polygon id="grid-item-223" fill="#828282" points="449.95,149.9 449.95,99.98 400.02,99.98 	"/>
	<polygon id="grid-item-224" fill="#828282" points="300.05,50.05 300.05,0 250,50.05 	"/>
	<polygon id="grid-item-225" fill="#828282" points="449.95,0 400.02,0 449.95,49.93 	"/>
	<polygon id="grid-item-226" fill="#828282" points="349.98,0 300.05,0 349.98,49.93 	"/>
	<polygon id="grid-item-227" fill="#828282" points="449.95,199.95 449.95,150.02 400.02,199.95 	"/>
	<polygon id="grid-item-228" fill="#828282" points="349.98,50.05 349.98,49.93 300.05,0 300.05,50.05 	"/>
	<polygon id="grid-item-229" fill="#828282" points="449.95,50.05 449.95,49.93 400.02,0 400.02,50.05 	"/>
	<polygon id="grid-item-230" fill="#828282" points="350.04,49.99 400.02,0 349.98,0 349.98,49.93 	"/>
	<polygon id="grid-item-231" fill="#828282" points="350.1,50.05 400.02,50.05 400.02,0 350.04,49.99 	"/>
	<polygon id="grid-item-232" fill="#828282" points="400.02,199.95 449.95,150.02 400.02,150.02 	"/>
	<polygon id="grid-item-233" fill="#828282" points="449.95,400.02 449.95,350.1 400.02,400.02 	"/>
	<polygon id="grid-item-234" fill="#828282" points="449.95,449.95 449.95,400.02 400.02,400.02 	"/>
	<polygon id="grid-item-235" fill="#828282" points="350.1,449.95 400.02,449.95 400.02,400.02 	"/>
	<polygon id="grid-item-236" fill="#828282" points="400.02,449.95 449.95,449.95 400.02,400.02 	"/>
	<polygon id="grid-item-237" fill="#828282" points="300.05,449.95 349.98,449.95 300.05,400.02 	"/>
	<polygon id="grid-item-238" fill="#828282" points="349.98,400.02 349.98,449.95 350.1,449.95 400.02,400.02 	"/>
	<polygon id="grid-item-239" fill="#828282" points="300.05,400.02 349.98,449.95 349.98,400.02 	"/>
	<polygon id="grid-item-240" fill="#828282" points="400.02,300.05 449.95,300.05 449.95,250 400.02,299.93 	"/>
	<polygon id="grid-item-241" fill="#828282" points="400.02,299.93 449.95,250 400.02,250 	"/>
	<polygon id="grid-item-242" fill="#828282" points="400.02,400.02 449.95,350.1 449.95,349.98 400.02,349.98 	"/>
	<polygon id="grid-item-243" fill="#828282" points="400.02,250 449.95,250 400.02,200.07 	"/>
	<polygon id="grid-item-244" fill="#828282" points="400.02,200.07 449.95,250 449.95,199.95 400.02,199.95 	"/>
	<polygon id="grid-item-245" fill="#828282" points="449.95,349.98 449.95,300.05 400.02,300.05 	"/>
	<polygon id="grid-item-246" fill="#828282" points="400.02,349.98 449.95,349.98 400.02,300.05 	"/>
	<polygon id="grid-item-247" fill="#828282" points="50.05,250 0,250 0,300.05 0,300.05 50.05,250 	"/>
	<polygon id="grid-item-248" fill="#828282" points="50.05,250 0,300.05 50.05,300.05 	"/>
</g>
<g id="lines">
	<rect fill="none" stroke="#231F20" stroke-width="0.25" stroke-miterlimit="10" stroke-dasharray="5,2" width="500" height="500"/>
	
		<line fill="none" stroke="#231F20" stroke-width="0.25" stroke-miterlimit="10" stroke-dasharray="5,2" x1="0" y1="449.95" x2="500" y2="449.95"/>
	
		<line fill="none" stroke="#231F20" stroke-width="0.25" stroke-miterlimit="10" stroke-dasharray="5,2" x1="0" y1="400.02" x2="500" y2="400.02"/>
	
		<line fill="none" stroke="#231F20" stroke-width="0.25" stroke-miterlimit="10" stroke-dasharray="5,2" x1="0" y1="349.98" x2="500" y2="349.98"/>
	
		<line fill="none" stroke="#231F20" stroke-width="0.25" stroke-miterlimit="10" stroke-dasharray="5,2" x1="0" y1="300.05" x2="500" y2="300.05"/>
	<line fill="none" stroke="#231F20" stroke-miterlimit="10" stroke-dasharray="5,2" x1="-0.25" y1="250" x2="499.75" y2="250"/>
	
		<line fill="none" stroke="#231F20" stroke-width="0.25" stroke-miterlimit="10" stroke-dasharray="5,2" x1="0" y1="199.95" x2="500" y2="199.95"/>
	
		<line fill="none" stroke="#231F20" stroke-width="0.25" stroke-miterlimit="10" stroke-dasharray="5,2" x1="0" y1="150.02" x2="500" y2="150.02"/>
	
		<line fill="none" stroke="#231F20" stroke-width="0.25" stroke-miterlimit="10" stroke-dasharray="5,2" x1="0" y1="99.98" x2="500" y2="99.98"/>
	
		<line fill="none" stroke="#231F20" stroke-width="0.25" stroke-miterlimit="10" stroke-dasharray="5,2" x1="0" y1="50.05" x2="500" y2="50.05"/>
	
		<line fill="none" stroke="#231F20" stroke-width="0.25" stroke-miterlimit="10" stroke-dasharray="5,2" x1="449.95" y1="0" x2="449.95" y2="500"/>
	
		<line fill="none" stroke="#231F20" stroke-width="0.25" stroke-miterlimit="10" stroke-dasharray="5,2" x1="400.02" y1="0" x2="400.02" y2="500"/>
	
		<line fill="none" stroke="#231F20" stroke-width="0.25" stroke-miterlimit="10" stroke-dasharray="5,2" x1="349.98" y1="0" x2="349.98" y2="500"/>
	
		<line fill="none" stroke="#231F20" stroke-width="0.25" stroke-miterlimit="10" stroke-dasharray="5,2" x1="300.05" y1="0" x2="300.05" y2="500"/>
	<line fill="none" stroke="#231F20" stroke-miterlimit="10" stroke-dasharray="5,2" x1="249.75" y1="0" x2="249.75" y2="500"/>
	
		<line fill="none" stroke="#231F20" stroke-width="0.25" stroke-miterlimit="10" stroke-dasharray="5,2" x1="199.95" y1="0" x2="199.95" y2="500"/>
	
		<line fill="none" stroke="#231F20" stroke-width="0.25" stroke-miterlimit="10" stroke-dasharray="5,2" x1="150.02" y1="0" x2="150.02" y2="500"/>
	
		<line fill="none" stroke="#231F20" stroke-width="0.25" stroke-miterlimit="10" stroke-dasharray="5,2" x1="99.98" y1="0" x2="99.98" y2="500"/>
	
		<line fill="none" stroke="#231F20" stroke-width="0.25" stroke-miterlimit="10" stroke-dasharray="5,2" x1="50.05" y1="0" x2="50.05" y2="500"/>
	
		<line fill="none" stroke="#231F20" stroke-width="0.25" stroke-miterlimit="10" stroke-dasharray="5,2" x1="0" y1="0" x2="500" y2="500"/>
	
		<line fill="none" stroke="#231F20" stroke-width="0.25" stroke-miterlimit="10" stroke-dasharray="5,2" x1="99.98" y1="0" x2="500" y2="400.02"/>
	
		<line fill="none" stroke="#231F20" stroke-width="0.25" stroke-miterlimit="10" stroke-dasharray="5,2" x1="199.95" y1="0" x2="500" y2="300.05"/>
	
		<line fill="none" stroke="#231F20" stroke-width="0.25" stroke-miterlimit="10" stroke-dasharray="5,2" x1="300.05" y1="0" x2="500" y2="199.95"/>
	
		<line fill="none" stroke="#231F20" stroke-width="0.25" stroke-miterlimit="10" stroke-dasharray="5,2" x1="400.02" y1="0" x2="500" y2="99.98"/>
	
		<line fill="none" stroke="#231F20" stroke-width="0.25" stroke-miterlimit="10" stroke-dasharray="5,2" x1="0" y1="99.98" x2="400.02" y2="500"/>
	
		<line fill="none" stroke="#231F20" stroke-width="0.25" stroke-miterlimit="10" stroke-dasharray="5,2" x1="0" y1="199.95" x2="300.05" y2="500"/>
	
		<line fill="none" stroke="#231F20" stroke-width="0.25" stroke-miterlimit="10" stroke-dasharray="5,2" x1="0" y1="300.05" x2="199.95" y2="500"/>
	
		<line fill="none" stroke="#231F20" stroke-width="0.25" stroke-miterlimit="10" stroke-dasharray="5,2" x1="0" y1="400.02" x2="99.98" y2="500"/>
	
		<line fill="none" stroke="#231F20" stroke-width="0.25" stroke-miterlimit="10" stroke-dasharray="5,2" x1="500" y1="0" x2="0" y2="500"/>
	
		<line fill="none" stroke="#231F20" stroke-width="0.25" stroke-miterlimit="10" stroke-dasharray="5,2" x1="400.02" y1="0" x2="0" y2="400.02"/>
	
		<line fill="none" stroke="#231F20" stroke-width="0.25" stroke-miterlimit="10" stroke-dasharray="5,2" x1="300.05" y1="0" x2="0" y2="300.05"/>
	
		<line fill="none" stroke="#231F20" stroke-width="0.25" stroke-miterlimit="10" stroke-dasharray="5,2" x1="199.95" y1="0" x2="0" y2="199.95"/>
	
		<line fill="none" stroke="#231F20" stroke-width="0.25" stroke-miterlimit="10" stroke-dasharray="5,2" x1="99.98" y1="0" x2="0" y2="99.98"/>
	
		<line fill="none" stroke="#231F20" stroke-width="0.25" stroke-miterlimit="10" stroke-dasharray="5,2" x1="500" y1="99.98" x2="99.98" y2="500"/>
	
		<line fill="none" stroke="#231F20" stroke-width="0.25" stroke-miterlimit="10" stroke-dasharray="5,2" x1="500" y1="199.95" x2="199.95" y2="500"/>
	
		<line fill="none" stroke="#231F20" stroke-width="0.25" stroke-miterlimit="10" stroke-dasharray="5,2" x1="500" y1="300.05" x2="300.05" y2="500"/>
	
		<line fill="none" stroke="#231F20" stroke-width="0.25" stroke-miterlimit="10" stroke-dasharray="5,2" x1="500" y1="400.02" x2="400.02" y2="500"/>
</g>
</svg>
