<?xml version="1.0" encoding="utf-8"?>
<svg version="1.2" baseProfile="tiny" xmlns="http://www.w3.org/2000/svg" xmlns:xlink="http://www.w3.org/1999/xlink"
	 x="0px" y="0px" width="160.35px" height="160.52px" viewBox="0 0 160.35 160.52" overflow="inherit" xml:space="preserve">
<g id="patch-01">
    <rect x="5.07" y="5.15" transform="matrix(0.7071 -0.7071 0.7071 0.7071 -7.4838 17.9466)" fill="none" width="25.71" height="25.71"/>
	<polygon fill="#231F20" points="21.36,16.99 18.94,16.99 18.94,14.57 16.9,14.57 16.9,16.99 14.48,16.99 14.48,19.03 16.9,19.03
		16.9,21.44 18.94,21.44 18.94,19.03 21.36,19.03 	"/>
	<circle fill="none" stroke="#231F20" stroke-width="2" stroke-miterlimit="10" cx="17.92" cy="18.01" r="3.42"/>
</g>
<g id="patch-02">
    <rect x="46.4" y="5.32" transform="matrix(0.7071 -0.7071 0.7071 0.7071 4.5001 47.2218)" fill="none" width="25.71" height="25.71"/>
	<polygon fill="#231F20" points="62.69,16.99 60.27,16.99 60.27,14.57 58.23,14.57 58.23,16.99 55.82,16.99 55.82,19.03
		58.23,19.03 58.23,21.44 60.27,21.44 60.27,19.03 62.69,19.03 	"/>
	<circle fill="none" stroke="#231F20" stroke-width="2" stroke-miterlimit="10" cx="59.22" cy="18.01" r="3.42"/>
</g>
<g id="patch-03">
    <rect x="87.73" y="5.5" transform="matrix(0.7071 -0.7071 0.7071 0.7071 16.4857 76.4994)" fill="none" width="25.71" height="25.71"/>
	<polygon fill="#231F20" points="104.02,16.99 101.6,16.99 101.6,14.57 99.56,14.57 99.56,16.99 97.15,16.99 97.15,19.03
		99.56,19.03 99.56,21.44 101.6,21.44 101.6,19.03 104.02,19.03 	"/>
	<circle fill="none" stroke="#231F20" stroke-width="2" stroke-miterlimit="10" cx="100.52" cy="18.01" r="3.42"/>
</g>
<g id="patch-04">
    <rect x="129.06" y="5.67" transform="matrix(0.7071 -0.7071 0.7071 0.7071 28.4694 105.7742)" fill="none" width="25.71" height="25.71"/>
	<polygon fill="#231F20" points="145.35,16.99 142.94,16.99 142.94,14.57 140.9,14.57 140.9,16.99 138.48,16.99 138.48,19.03
		140.9,19.03 140.9,21.44 142.94,21.44 142.94,19.03 145.35,19.03 	"/>
	<circle fill="none" stroke="#231F20" stroke-width="2" stroke-miterlimit="10" cx="141.83" cy="18.01" r="3.42"/>
</g>
<g id="patch-05">
    <rect x="5.24" y="46.48" transform="matrix(0.7071 -0.7071 0.7071 0.7071 -36.6595 30.174)" fill="none" width="25.71" height="25.71"/>
	<polygon fill="#231F20" points="21.36,58.32 18.94,58.32 18.94,55.9 16.9,55.9 16.9,58.32 14.48,58.32 14.48,60.36 16.9,60.36
		16.9,62.78 18.94,62.78 18.94,60.36 21.36,60.36 	"/>
	<circle fill="none" stroke="#231F20" stroke-width="2" stroke-miterlimit="10" cx="17.92" cy="59.34" r="3.42"/>
</g>
<g id="patch-06">
    <rect x="46.57" y="46.66" transform="matrix(0.7071 -0.7071 0.7071 0.7071 -24.6749 59.4492)" fill="none" width="25.71" height="25.71"/>
	<polygon fill="#231F20" points="62.69,58.32 60.27,58.32 60.27,55.9 58.23,55.9 58.23,58.32 55.82,58.32 55.82,60.36 58.23,60.36
		58.23,62.78 60.27,62.78 60.27,60.36 62.69,60.36 	"/>
	<circle fill="none" stroke="#231F20" stroke-width="2" stroke-miterlimit="10" cx="59.22" cy="59.34" r="3.42"/>
</g>
<g id="patch-07">
    <rect x="87.9" y="46.83" transform="matrix(0.7071 -0.7071 0.7071 0.7071 -12.6903 88.7267)" fill="none" width="25.71" height="25.71"/>
	<polygon fill="#231F20" points="104.02,58.32 101.6,58.32 101.6,55.9 99.56,55.9 99.56,58.32 97.15,58.32 97.15,60.36 99.56,60.36
		99.56,62.78 101.6,62.78 101.6,60.36 104.02,60.36 	"/>
	<circle fill="none" stroke="#231F20" stroke-width="2" stroke-miterlimit="10" cx="100.52" cy="59.34" r="3.42"/>
</g>
<g id="patch-08">
    <rect x="129.23" y="47" transform="matrix(0.7071 -0.7071 0.7071 0.7071 -0.7054 118.0031)" fill="none" width="25.71" height="25.71"/>
	<polygon fill="#231F20" points="145.35,58.32 142.94,58.32 142.94,55.9 140.9,55.9 140.9,58.32 138.48,58.32 138.48,60.36
		140.9,60.36 140.9,62.78 142.94,62.78 142.94,60.36 145.35,60.36 	"/>
	<circle fill="none" stroke="#231F20" stroke-width="2" stroke-miterlimit="10" cx="141.83" cy="59.34" r="3.42"/>
</g>
<g id="patch-09">
    <rect x="5.41" y="87.81" transform="matrix(0.7071 -0.7071 0.7071 0.7071 -65.8346 42.4001)" fill="none" width="25.71" height="25.71"/>
	<polygon fill="#231F20" points="21.36,99.65 18.94,99.65 18.94,97.23 16.9,97.23 16.9,99.65 14.48,99.65 14.48,101.69 16.9,101.69
		16.9,104.11 18.94,104.11 18.94,101.69 21.36,101.69 	"/>
	<circle fill="none" stroke="#231F20" stroke-width="2" stroke-miterlimit="10" cx="17.92" cy="100.67" r="3.42"/>
</g>
<g id="patch-10">
    <rect x="46.74" y="87.99" transform="matrix(0.7071 -0.7071 0.7071 0.7071 -53.8512 71.6791)" fill="none" width="25.71" height="25.71"/>
	<polygon fill="#231F20" points="62.69,99.65 60.27,99.65 60.27,97.23 58.23,97.23 58.23,99.65 55.82,99.65 55.82,101.69
		58.23,101.69 58.23,104.11 60.27,104.11 60.27,101.69 62.69,101.69 	"/>
	<circle fill="none" stroke="#231F20" stroke-width="2" stroke-miterlimit="10" cx="59.22" cy="100.67" r="3.42"/>
</g>
<g id="patch-11">
    <rect x="88.07" y="88.16" transform="matrix(0.7071 -0.7071 0.7071 0.7071 -41.8658 100.9523)" fill="none" width="25.71" height="25.71"/>
	<polygon fill="#231F20" points="104.02,99.65 101.6,99.65 101.6,97.23 99.56,97.23 99.56,99.65 97.15,99.65 97.15,101.69
		99.56,101.69 99.56,104.11 101.6,104.11 101.6,101.69 104.02,101.69 	"/>
	<circle fill="none" stroke="#231F20" stroke-width="2" stroke-miterlimit="10" cx="100.52" cy="100.67" r="3.42"/>
</g>
<g id="patch-12">
    <rect x="129.4" y="88.33" transform="matrix(0.7071 -0.7071 0.7071 0.7071 -29.8824 130.2238)" fill="none" width="25.71" height="25.71"/>
	<polygon fill="#231F20" points="145.35,99.65 142.94,99.65 142.94,97.23 140.9,97.23 140.9,99.65 138.48,99.65 138.48,101.69
		140.9,101.69 140.9,104.11 142.94,104.11 142.94,101.69 145.35,101.69 	"/>
	<circle fill="none" stroke="#231F20" stroke-width="2" stroke-miterlimit="10" cx="141.83" cy="100.67" r="3.42"/>
</g>
<g id="patch-13">
    <rect x="5.58" y="129.15" transform="matrix(0.7071 -0.7071 0.7071 0.7071 -95.0103 54.6269)" fill="none" width="25.71" height="25.71"/>
	<polygon fill="#231F20" points="21.36,140.98 18.94,140.98 18.94,138.56 16.9,138.56 16.9,140.98 14.48,140.98 14.48,143.02
		16.9,143.02 16.9,145.44 18.94,145.44 18.94,143.02 21.36,143.02 	"/>
	<circle fill="none" stroke="#231F20" stroke-width="2" stroke-miterlimit="10" cx="17.92" cy="142" r="3.42"/>
</g>
<g id="patch-14">
    <rect x="46.91" y="129.32" transform="matrix(0.7071 -0.7071 0.7071 0.7071 -83.0261 83.903)" fill="none" width="25.71" height="25.71"/>
	<polygon fill="#231F20" points="62.69,140.98 60.27,140.98 60.27,138.56 58.23,138.56 58.23,140.98 55.82,140.98 55.82,143.02
		58.23,143.02 58.23,145.44 60.27,145.44 60.27,143.02 62.69,143.02 	"/>
	<circle fill="none" stroke="#231F20" stroke-width="2" stroke-miterlimit="10" cx="59.22" cy="142" r="3.42"/>
</g>
<g id="patch-15">
    <rect x="88.24" y="129.49" transform="matrix(0.7071 -0.7071 0.7071 0.7071 -71.0415 113.1792)" fill="none" width="25.71" height="25.71"/>
	<polygon fill="#231F20" points="104.02,140.98 101.6,140.98 101.6,138.56 99.56,138.56 99.56,140.98 97.15,140.98 97.15,143.02
		99.56,143.02 99.56,145.44 101.6,145.44 101.6,143.02 104.02,143.02 	"/>
	<circle fill="none" stroke="#231F20" stroke-width="2" stroke-miterlimit="10" cx="100.52" cy="142" r="3.42"/>
</g>
<g id="patch-16">
    <rect x="129.58" y="129.66" transform="matrix(0.7071 -0.7071 0.7071 0.7071 -59.0569 142.4498)" fill="none" width="25.71" height="25.71"/>
	<polygon fill="#231F20" points="145.35,140.98 142.94,140.98 142.94,138.56 140.9,138.56 140.9,140.98 138.48,140.98
		138.48,143.02 140.9,143.02 140.9,145.44 142.94,145.44 142.94,143.02 145.35,143.02 	"/>
	<circle fill="none" stroke="#231F20" stroke-width="2" stroke-miterlimit="10" cx="141.83" cy="142" r="3.42"/>
</g>
<g id="patch-17">
    <rect x="26.16" y="108.57" transform="matrix(0.7071 -0.7071 0.7071 0.7071 -74.4294 63.15)" fill="none" width="25.71" height="25.71"/>
	<polygon fill="#231F20" points="42.02,120.4 39.61,120.4 39.61,117.98 37.57,117.98 37.57,120.4 35.15,120.4 35.15,122.44
		37.57,122.44 37.57,124.86 39.61,124.86 39.61,122.44 42.02,122.44 	"/>
	<circle fill="none" stroke="#231F20" stroke-width="2" stroke-miterlimit="10" cx="38.57" cy="121.5" r="3.42"/>
</g>
<g id="patch-18">
    <rect x="67.49" y="108.74" transform="matrix(0.7071 -0.7071 0.7071 0.7071 -62.4459 92.4277)" fill="none" width="25.71" height="25.71"/>
	<polygon fill="#231F20" points="83.36,120.4 80.94,120.4 80.94,117.98 78.9,117.98 78.9,120.4 76.48,120.4 76.48,122.44
		78.9,122.44 78.9,124.86 80.94,124.86 80.94,122.44 83.36,122.44 	"/>
	<circle fill="none" stroke="#231F20" stroke-width="2" stroke-miterlimit="10" cx="79.87" cy="121.5" r="3.42"/>
</g>
<g id="patch-19">
    <rect x="108.82" y="108.91" transform="matrix(0.7071 -0.7071 0.7071 0.7071 -50.4615 121.708)" fill="none" width="25.71" height="25.71"/>
	<polygon fill="#231F20" points="124.69,120.4 122.27,120.4 122.27,117.98 120.23,117.98 120.23,120.4 117.81,120.4 117.81,122.44
		120.23,122.44 120.23,124.86 122.27,124.86 122.27,122.44 124.69,122.44 	"/>
	<circle fill="none" stroke="#231F20" stroke-width="2" stroke-miterlimit="10" cx="121.18" cy="121.5" r="3.42"/>
</g>
<g id="patch-20">
    <rect x="25.99" y="67.24" transform="matrix(0.7071 -0.7071 0.7071 0.7071 -45.2549 50.9246)" fill="none" width="25.71" height="25.71"/>
	<polygon fill="#231F20" points="42.02,78.9 39.61,78.9 39.61,76.48 37.57,76.48 37.57,78.9 35.15,78.9 35.15,80.94 37.57,80.94
		37.57,83.36 39.61,83.36 39.61,80.94 42.02,80.94 	"/>
	<circle fill="none" stroke="#231F20" stroke-width="2" stroke-miterlimit="10" cx="38.57" cy="79.99" r="3.42"/>
</g>
<g id="patch-21">
    <rect x="67.32" y="67.41" transform="matrix(0.7071 -0.7071 0.7071 0.7071 -33.2705 80.2005)" fill="none" width="25.71" height="25.71"/>
	<polygon fill="#231F20" points="83.36,78.9 80.94,78.9 80.94,76.48 78.9,76.48 78.9,78.9 76.48,78.9 76.48,80.94 78.9,80.94
		78.9,83.36 80.94,83.36 80.94,80.94 83.36,80.94 	"/>
	<circle fill="none" stroke="#231F20" stroke-width="2" stroke-miterlimit="10" cx="79.87" cy="79.99" r="3.42"/>
</g>
<g id="patch-22">
    <rect x="108.65" y="67.58" transform="matrix(0.7071 -0.7071 0.7071 0.7071 -21.2859 109.479)" fill="none" width="25.71" height="25.71"/>
	<polygon fill="#231F20" points="124.69,78.9 122.27,78.9 122.27,76.48 120.23,76.48 120.23,78.9 117.81,78.9 117.81,80.94
		120.23,80.94 120.23,83.36 122.27,83.36 122.27,80.94 124.69,80.94 	"/>
	<circle fill="none" stroke="#231F20" stroke-width="2" stroke-miterlimit="10" cx="121.18" cy="79.99" r="3.42"/>
</g>
<g id="patch-23">
    <rect x="25.82" y="25.9" transform="matrix(0.7071 -0.7071 0.7071 0.7071 -16.0793 38.697)" fill="none" width="25.71" height="25.71"/>
	<polygon fill="#231F20" points="42.02,37.67 39.61,37.67 39.61,35.25 37.57,35.25 37.57,37.67 35.15,37.67 35.15,39.71
		37.57,39.71 37.57,42.13 39.61,42.13 39.61,39.71 42.02,39.71 	"/>
	<circle fill="none" stroke="#231F20" stroke-width="2" stroke-miterlimit="10" cx="38.57" cy="38.75" r="3.42"/>
</g>
<g id="patch-24">
    <rect x="67.15" y="26.08" transform="matrix(0.7071 -0.7071 0.7071 0.7071 -4.0951 67.9739)" fill="none" width="25.71" height="25.71"/>
	<polygon fill="#231F20" points="83.36,37.67 80.94,37.67 80.94,35.25 78.9,35.25 78.9,37.67 76.48,37.67 76.48,39.71 78.9,39.71
		78.9,42.13 80.94,42.13 80.94,39.71 83.36,39.71 	"/>
	<circle fill="none" stroke="#231F20" stroke-width="2" stroke-miterlimit="10" cx="79.87" cy="38.75" r="3.42"/>
</g>
<g id="patch-25">
    <rect x="108.48" y="26.25" transform="matrix(0.7071 -0.7071 0.7071 0.7071 7.8901 97.2512)" fill="none" width="25.71" height="25.71"/>
	<polygon fill="#231F20" points="124.69,37.67 122.27,37.67 122.27,35.25 120.23,35.25 120.23,37.67 117.81,37.67 117.81,39.71
		120.23,39.71 120.23,42.13 122.27,42.13 122.27,39.71 124.69,39.71 	"/>
	<circle fill="none" stroke="#231F20" stroke-width="2" stroke-miterlimit="10" cx="121.18" cy="38.75" r="3.42"/>
</g>
</svg>
