<svg version="1.1" xmlns="http://www.w3.org/2000/svg" xmlns:xlink="http://www.w3.org/1999/xlink" x="0px" y="0px"	 width="202.37px" height="201.85px" viewBox="0 0 202.37 201.85" enable-background="new 0 0 202.37 201.85" xml:space="preserve">    <g>        <rect x="5.32" y="4.98" transform="matrix(0.7071 -0.7071 0.7071 0.7071 -7.2899 18.0769)" width="25.71" height="25.71"/>        <polygon points="21.62,16.82 19.2,16.82 19.2,14.4 17.16,14.4 17.16,16.82 14.74,16.82 14.74,18.86 17.16,18.86            17.16,21.27 19.2,21.27 19.2,18.86 21.62,18.86"/>        <circle cx="18.18" cy="17.84" r="3.42"/>    </g>    <g>        <rect x="46.66" y="5.15" transform="matrix(0.7071 -0.7071 0.7071 0.7071 4.7001 47.3536)" width="25.71" height="25.71"/>        <polygon points="62.95,16.82 60.53,16.82 60.53,14.4 58.49,14.4 58.49,16.82 56.07,16.82 56.07,18.86 58.49,18.86            58.49,21.27 60.53,21.27 60.53,18.86 62.95,18.86"/>        <circle cx="59.48" cy="17.84" r="3.42"/>    </g>    <g>        <rect x="87.99" y="5.32" transform="matrix(0.7071 -0.7071 0.7071 0.7071 16.6836 76.6287)" width="25.71" height="25.71"/>        <polygon points="104.28,16.82 101.86,16.82 101.86,14.4 99.82,14.4 99.82,16.82 97.4,16.82 97.4,18.86 99.82,18.86            99.82,21.27 101.86,21.27 101.86,18.86 104.28,18.86"/>        <circle cx="100.78" cy="17.84" r="3.42"/>    </g>    <g>        <rect x="129.32" y="5.5" transform="matrix(0.7071 -0.7071 0.7071 0.7071 28.6652 105.9104)" width="25.71" height="25.71"/>        <polygon points="145.61,16.82 143.19,16.82 143.19,14.4 141.15,14.4 141.15,16.82 138.74,16.82 138.74,18.86            141.15,18.86 141.15,21.27 143.19,21.27 143.19,18.86 145.61,18.86"/>        <circle cx="142.08" cy="17.84" r="3.42"/>    </g>    <g>        <rect x="170.65" y="5.67" transform="matrix(0.7071 -0.7071 0.7071 0.7071 40.6526 135.1896)" width="25.71" height="25.71"/>        <polygon points="186.94,16.82 184.53,16.82 184.53,14.4 182.48,14.4 182.48,16.82 180.07,16.82 180.07,18.86            182.48,18.86 182.48,21.27 184.53,21.27 184.53,18.86 186.94,18.86"/>        <circle cx="183.39" cy="17.84" r="3.42"/>    </g>    <g>        <rect x="5.5" y="46.31" transform="matrix(0.7071 -0.7071 0.7071 0.7071 -36.4601 30.306)" width="25.71" height="25.71"/>        <polygon points="21.62,58.15 19.2,58.15 19.2,55.73 17.16,55.73 17.16,58.15 14.74,58.15 14.74,60.19 17.16,60.19            17.16,62.6 19.2,62.6 19.2,60.19 21.62,60.19"/>        <circle cx="18.18" cy="59.17" r="3.42"/>    </g>    <g>        <rect x="46.83" y="46.48" transform="matrix(0.7071 -0.7071 0.7071 0.7071 -24.4753 59.5799)" width="25.71" height="25.71"/>        <polygon points="62.95,58.15 60.53,58.15 60.53,55.73 58.49,55.73 58.49,58.15 56.07,58.15 56.07,60.19            58.49,60.19 58.49,62.6 60.53,62.6 60.53,60.19 62.95,60.19"/>        <circle cx="59.48" cy="59.17" r="3.42"/>    </g>    <g>        <rect x="88.16" y="46.66" transform="matrix(0.7071 -0.7071 0.7071 0.7071 -12.4939 88.861)" width="25.71" height="25.71"/>        <polygon points="104.28,58.15 101.86,58.15 101.86,55.73 99.82,55.73 99.82,58.15 97.4,58.15 97.4,60.19            99.82,60.19 99.82,62.6 101.86,62.6 101.86,60.19 104.28,60.19"/>        <circle cx="100.78" cy="59.17" r="3.42"/>    </g>    <g>        <rect x="129.49" y="46.83" transform="matrix(0.7071 -0.7071 0.7071 0.7071 -0.5094 118.1349)" width="25.71" height="25.71"/>        <polygon points="145.61,58.15 143.19,58.15 143.19,55.73 141.15,55.73 141.15,58.15 138.74,58.15 138.74,60.19            141.15,60.19 141.15,62.6 143.19,62.6 143.19,60.19 145.61,60.19"/>        <circle cx="142.08" cy="59.17" r="3.42"/>    </g>    <g>        <rect x="170.82" y="47" transform="matrix(0.7071 -0.7071 0.7071 0.7071 11.4734 147.4108)" width="25.71" height="25.71"/>        <polygon points="186.94,58.15 184.53,58.15 184.53,55.73 182.48,55.73 182.48,58.15 180.07,58.15 180.07,60.19            182.48,60.19 182.48,62.6 184.53,62.6 184.53,60.19 186.94,60.19"/>        <circle cx="183.39" cy="59.17" r="3.42"/>    </g>    <g>        <rect x="5.67" y="87.64" transform="matrix(0.7071 -0.7071 0.7071 0.7071 -65.6349 42.5302)" width="25.71" height="25.71"/>        <polygon points="21.62,99.48 19.2,99.48 19.2,97.06 17.16,97.06 17.16,99.48 14.74,99.48 14.74,101.52            17.16,101.52 17.16,103.94 19.2,103.94 19.2,101.52 21.62,101.52"/>        <circle cx="18.18" cy="100.5" r="3.42"/>    </g>    <g>        <rect x="47" y="87.82" transform="matrix(0.7071 -0.7071 0.7071 0.7071 -53.6553 71.8127)" width="25.71" height="25.71"/>        <polygon points="62.95,99.48 60.53,99.48 60.53,97.06 58.49,97.06 58.49,99.48 56.07,99.48 56.07,101.52            58.49,101.52 58.49,103.94 60.53,103.94 60.53,101.52 62.95,101.52"/>        <circle cx="59.48" cy="100.5" r="3.42"/>    </g>    <g>        <rect x="88.33" y="87.99" transform="matrix(0.7071 -0.7071 0.7071 0.7071 -41.6693 101.0856)" width="25.71" height="25.71"/>        <polygon points="104.28,99.48 101.86,99.48 101.86,97.06 99.82,97.06 99.82,99.48 97.4,99.48 97.4,101.52            99.82,101.52 99.82,103.94 101.86,103.94 101.86,101.52 104.28,101.52 	"/>        <circle cx="100.78" cy="100.5" r="3.42"/>    </g>    <g>        <rect x="129.66" y="88.16" transform="matrix(0.7071 -0.7071 0.7071 0.7071 -29.6871 130.3561)" width="25.71" height="25.71"/>        <polygon points="145.61,99.48 143.19,99.48 143.19,97.06 141.15,97.06 141.15,99.48 138.74,99.48 138.74,101.52            141.15,101.52 141.15,103.94 143.19,103.94 143.19,101.52 145.61,101.52 	"/>        <circle cx="142.08" cy="100.5" r="3.42"/>    </g>    <g>        <rect x="170.99" y="88.34" transform="matrix(0.7071 -0.7071 0.7071 0.7071 -17.7041 159.6433)" width="25.71" height="25.71"/>        <polygon points="186.94,99.48 184.53,99.48 184.53,97.06 182.48,97.06 182.48,99.48 180.07,99.48 180.07,101.52            182.48,101.52 182.48,103.94 184.53,103.94 184.53,101.52 186.94,101.52 	"/>        <circle cx="183.39" cy="100.5" r="3.42"/>    </g>    <g>        <rect x="5.84" y="128.98" transform="matrix(0.7071 -0.7071 0.7071 0.7071 -94.814 54.7632)" width="25.71" height="25.71"/>        <polygon points="21.62,140.81 19.2,140.81 19.2,138.39 17.16,138.39 17.16,140.81 14.74,140.81 14.74,142.85            17.16,142.85 17.16,145.27 19.2,145.27 19.2,142.85 21.62,142.85 	"/>        <circle cx="18.18" cy="141.83" r="3.42"/>    </g>    <g>        <rect x="47.17" y="129.15" transform="matrix(0.7071 -0.7071 0.7071 0.7071 -82.8299 84.0373)" width="25.71" height="25.71"/>        <polygon points="62.95,140.81 60.53,140.81 60.53,138.39 58.49,138.39 58.49,140.81 56.07,140.81 56.07,142.85            58.49,142.85 58.49,145.27 60.53,145.27 60.53,142.85 62.95,142.85 	"/>        <circle cx="59.48" cy="141.83" r="3.42"/>    </g>    <g>        <rect x="88.5" y="129.32" transform="matrix(0.7071 -0.7071 0.7071 0.7071 -70.8463 113.3121)" width="25.71" height="25.71"/>        <polygon points="104.28,140.81 101.86,140.81 101.86,138.39 99.82,138.39 99.82,140.81 97.4,140.81 97.4,142.85            99.82,142.85 99.82,145.27 101.86,145.27 101.86,142.85 104.28,142.85"/>        <circle cx="100.78" cy="141.83" r="3.42"/>    </g>    <g>        <rect x="129.83" y="129.49" transform="matrix(0.7071 -0.7071 0.7071 0.7071 -58.8593 142.5853)" width="25.71" height="25.71"/>        <polygon points="145.61,140.81 143.19,140.81 143.19,138.39 141.15,138.39 141.15,140.81 138.74,140.81            138.74,142.85 141.15,142.85 141.15,145.27 143.19,145.27 143.19,142.85 145.61,142.85"/>        <circle cx="142.08" cy="141.83" r="3.42"/>    </g>    <g>        <rect x="171.16" y="129.66" transform="matrix(0.7071 -0.7071 0.7071 0.7071 -46.8784 171.8612)" width="25.71" height="25.71"/>        <polygon points="186.94,140.81 184.53,140.81 184.53,138.39 182.48,138.39 182.48,140.81 180.07,140.81            180.07,142.85 182.48,142.85 182.48,145.27 184.53,145.27 184.53,142.85 186.94,142.85"/>        <circle cx="183.39" cy="141.83" r="3.42"/>    </g>    <g>        <rect x="6.01" y="170.31" transform="matrix(0.7071 -0.7071 0.7071 0.7071 -123.99 66.9865)" width="25.71" height="25.71"/>        <polygon points="21.62,182.14 19.2,182.14 19.2,179.72 17.16,179.72 17.16,182.14 14.74,182.14 14.74,184.18            17.16,184.18 17.16,186.6 19.2,186.6 19.2,184.18 21.62,184.18"/>        <circle cx="18.18" cy="183.16" r="3.42"/>    </g>    <g>        <rect x="47.34" y="170.48" transform="matrix(0.7071 -0.7071 0.7071 0.7071 -112.0063 96.2634)" width="25.71" height="25.71"/>        <polygon points="62.95,182.14 60.53,182.14 60.53,179.72 58.49,179.72 58.49,182.14 56.07,182.14 56.07,184.18            58.49,184.18 58.49,186.6 60.53,186.6 60.53,184.18 62.95,184.18"/>        <circle cx="59.48" cy="183.16" r="3.42"/>    </g>    <g>        <rect x="88.67" y="170.66" transform="matrix(0.7071 -0.7071 0.7071 0.7071 -100.0295 125.5366)" width="25.71" height="25.71"/>        <polygon points="104.28,182.14 101.86,182.14 101.86,179.72 99.82,179.72 99.82,182.14 97.4,182.14 97.4,184.18            99.82,184.18 99.82,186.6 101.86,186.6 101.86,184.18 104.28,184.18"/>        <circle cx="100.78" cy="183.16" r="3.42"/>    </g>    <g>        <rect x="130" y="170.82" transform="matrix(0.7071 -0.7071 0.7071 0.7071 -88.0385 154.8121)" width="25.71" height="25.71"/>        <polygon points="145.61,182.14 143.19,182.14 143.19,179.72 141.15,179.72 141.15,182.14 138.74,182.14            138.74,184.18 141.15,184.18 141.15,186.6 143.19,186.6 143.19,184.18 145.61,184.18"/>        <circle cx="142.08" cy="183.16" r="3.42"/>    </g>    <g>        <rect x="26.59" y="149.74" transform="matrix(0.7071 -0.7071 0.7071 0.7071 -103.416 75.5119)" width="25.71" height="25.71"/>        <polygon points="42.28,161.73 39.87,161.73 39.87,159.32 37.82,159.32 37.82,161.73 35.41,161.73 35.41,163.77            37.82,163.77 37.82,166.19 39.87,166.19 39.87,163.77 42.28,163.77"/>        <circle cx="38.83" cy="162.75" r="3.42"/>    </g>    <g>        <rect x="67.92" y="149.9" transform="matrix(0.7071 -0.7071 0.7071 0.7071 -91.423 104.7878)" width="25.71" height="25.71"/>        <polygon points="83.61,161.73 81.2,161.73 81.2,159.32 79.16,159.32 79.16,161.73 76.74,161.73 76.74,163.77            79.16,163.77 79.16,166.19 81.2,166.19 81.2,163.77 83.61,163.77"/>        <circle cx="80.13" cy="162.75" r="3.42"/>    </g>    <g>        <rect x="109.25" y="150.07" transform="matrix(0.7071 -0.7071 0.7071 0.7071 -79.4378 134.0562)" width="25.71" height="25.71"/>        <polygon points="124.95,161.73 122.53,161.73 122.53,159.32 120.49,159.32 120.49,161.73 118.07,161.73            118.07,163.77 120.49,163.77 120.49,166.19 122.53,166.19 122.53,163.77 124.95,163.77"/>        <circle cx="121.43" cy="162.75" r="3.42"/>    </g>    <g>        <rect x="150.58" y="150.24" transform="matrix(0.7071 -0.7071 0.7071 0.7071 -67.4585 163.3367)" width="25.71" height="25.71"/>        <polygon points="166.28,161.73 163.86,161.73 163.86,159.32 161.82,159.32 161.82,161.73 159.4,161.73            159.4,163.77 161.82,163.77 161.82,166.19 163.86,166.19 163.86,163.77 166.28,163.77"/>        <circle cx="162.73" cy="162.75" r="3.42"/>    </g>    <g>        <rect x="26.42" y="108.4" transform="matrix(0.7071 -0.7071 0.7071 0.7071 -74.233 63.2881)" width="25.71" height="25.71"/>        <polygon points="42.28,120.23 39.87,120.23 39.87,117.81 37.82,117.81 37.82,120.23 35.41,120.23 35.41,122.27            37.82,122.27 37.82,124.69 39.87,124.69 39.87,122.27 42.28,122.27"/>        <circle cx="38.83" cy="121.33" r="3.42"/>    </g>    <g>        <rect x="67.75" y="108.57" transform="matrix(0.7071 -0.7071 0.7071 0.7071 -62.2505 92.5584)" width="25.71" height="25.71"/>        <polygon points="83.61,120.23 81.2,120.23 81.2,117.81 79.16,117.81 79.16,120.23 76.74,120.23 76.74,122.27            79.16,122.27 79.16,124.69 81.2,124.69 81.2,122.27 83.61,122.27"/>        <circle cx="80.13" cy="121.33" r="3.42"/>    </g>    <g>        <rect x="109.08" y="108.75" transform="matrix(0.7071 -0.7071 0.7071 0.7071 -50.2696 121.8383)" width="25.71" height="25.71"/>        <polygon points="124.95,120.23 122.53,120.23 122.53,117.81 120.49,117.81 120.49,120.23 118.07,120.23            118.07,122.27 120.49,122.27 120.49,124.69 122.53,124.69 122.53,122.27 124.95,122.27"/>        <circle cx="121.43" cy="121.33" r="3.42"/>    </g>    <g>        <rect x="150.41" y="108.92" transform="matrix(0.7071 -0.7071 0.7071 0.7071 -38.2876 151.1076)" width="25.71" height="25.71"/>        <polygon points="166.28,120.23 163.86,120.23 163.86,117.81 161.82,117.81 161.82,120.23 159.4,120.23            159.4,122.27 161.82,122.27 161.82,124.69 163.86,124.69 163.86,122.27 166.28,122.27"/>        <circle cx="162.73" cy="121.33" r="3.42"/>    </g>    <g>        <rect x="26.25" y="67.06" transform="matrix(0.7071 -0.7071 0.7071 0.7071 -45.0545 51.0534)" width="25.71" height="25.71"/>        <polygon points="42.28,78.73 39.87,78.73 39.87,76.31 37.82,76.31 37.82,78.73 35.41,78.73 35.41,80.77            37.82,80.77 37.82,83.19 39.87,83.19 39.87,80.77 42.28,80.77"/>        <circle cx="38.83" cy="79.82" r="3.42"/>    </g>    <g>        <rect x="67.58" y="67.24" transform="matrix(0.7071 -0.7071 0.7071 0.7071 -33.0726 80.3359)" width="25.71" height="25.71"/>        <polygon points="83.61,78.73 81.2,78.73 81.2,76.31 79.16,76.31 79.16,78.73 76.74,78.73 76.74,80.77 79.16,80.77            79.16,83.19 81.2,83.19 81.2,80.77 83.61,80.77"/>        <circle cx="80.13" cy="79.82" r="3.42"/>    </g>    <g>        <rect x="108.91" y="67.41" transform="matrix(0.7071 -0.7071 0.7071 0.7071 -21.0897 109.61)" width="25.71" height="25.71"/>        <polygon points="124.95,78.73 122.53,78.73 122.53,76.31 120.49,76.31 120.49,78.73 118.07,78.73 118.07,80.77            120.49,80.77 120.49,83.19 122.53,83.19 122.53,80.77 124.95,80.77"/>        <circle cx="121.43" cy="79.82" r="3.42"/>    </g>    <g>        <rect x="150.24" y="67.59" transform="matrix(0.7071 -0.7071 0.7071 0.7071 -9.111 138.8893)" width="25.71" height="25.71"/>        <polygon points="166.28,78.73 163.86,78.73 163.86,76.31 161.82,76.31 161.82,78.73 159.4,78.73 159.4,80.77            161.82,80.77 161.82,83.19 163.86,83.19 163.86,80.77 166.28,80.77"/>        <circle cx="162.73" cy="79.82" r="3.42"/>    </g>    <g>        <rect x="26.08" y="25.73" transform="matrix(0.7071 -0.7071 0.7071 0.7071 -15.879 38.8308)" width="25.71" height="25.71"/>        <polygon points="42.28,37.5 39.87,37.5 39.87,35.08 37.82,35.08 37.82,37.5 35.41,37.5 35.41,39.54 37.82,39.54            37.82,41.95 39.87,41.95 39.87,39.54 42.28,39.54"/>        <circle cx="38.83" cy="38.58" r="3.42"/>    </g>    <g>        <rect x="67.41" y="25.9" transform="matrix(0.7071 -0.7071 0.7071 0.7071 -3.8945 68.1044)" width="25.71" height="25.71"/>        <polygon points="83.61,37.5 81.2,37.5 81.2,35.08 79.16,35.08 79.16,37.5 76.74,37.5 76.74,39.54 79.16,39.54            79.16,41.95 81.2,41.95 81.2,39.54 83.61,39.54"/>        <circle cx="80.13" cy="38.58" r="3.42"/>    </g>    <g>        <rect x="108.74" y="26.08" transform="matrix(0.7071 -0.7071 0.7071 0.7071 8.0847 97.386)" width="25.71" height="25.71"/>        <polygon points="124.95,37.5 122.53,37.5 122.53,35.08 120.49,35.08 120.49,37.5 118.07,37.5 118.07,39.54            120.49,39.54 120.49,41.95 122.53,41.95 122.53,39.54 124.95,39.54"/>        <circle cx="121.43" cy="38.58" r="3.42"/>    </g>    <g>        <rect x="150.07" y="26.24" transform="matrix(0.7071 -0.7071 0.7071 0.7071 20.0709 126.6521)" width="25.71" height="25.71"/>        <polygon points="166.28,37.5 163.86,37.5 163.86,35.08 161.82,35.08 161.82,37.5 159.4,37.5 159.4,39.54            161.82,39.54 161.82,41.95 163.86,41.95 163.86,39.54 166.28,39.54"/>        <circle cx="162.73" cy="38.58" r="3.42"/>    </g>    <g>        <rect x="171.34" y="170.99" transform="matrix(0.7071 -0.7071 0.7071 0.7071 -76.0475 184.0891)" width="25.71" height="25.71"/>        <polygon points="186.94,182.14 184.53,182.14 184.53,179.72 182.48,179.72 182.48,182.14 180.07,182.14            180.07,184.18 182.48,184.18 182.48,186.6 184.53,186.6 184.53,184.18 186.94,184.18"/>        <circle cx="183.39" cy="183.16" r="3.42"/>    </g></svg>