<?xml version="1.0" encoding="utf-8"?>
<!-- Generator: Adobe Illustrator 15.1.0, SVG Export Plug-In . SVG Version: 6.00 Build 0)  -->
<svg version="1.2" baseProfile="tiny" xmlns="http://www.w3.org/2000/svg" xmlns:xlink="http://www.w3.org/1999/xlink" x="0px"
	 y="0px" width="500px" height="500px" viewBox="0 0 500 500" overflow="inherit" xml:space="preserve">
<g id="gridareas">
	<polygon fill="#828282" points="299.99,100.04 299.93,99.98 250,99.98 250,150.02 	"/>
	<polygon fill="#828282" points="399.9,199.95 349.98,150.02 349.98,199.95 	"/>
	<polygon fill="#828282" points="300.05,99.98 299.93,99.98 299.99,100.04 	"/>
	<polygon fill="#828282" points="349.98,150.02 349.98,99.98 300.05,99.98 300.05,100.1 	"/>
	<polygon fill="#828282" points="349.98,199.95 349.98,150.02 300.05,199.95 	"/>
	<polygon fill="#828282" points="300.05,150.02 349.98,150.02 300.05,100.1 	"/>
	<polygon fill="#828282" points="300.05,199.95 349.98,150.02 300.05,150.02 	"/>
	<polygon fill="#828282" points="300.05,100.1 300.05,99.98 299.99,100.04 	"/>
	<polygon fill="#828282" points="99.98,99.98 99.98,150.02 150.02,150.02 	"/>
	<polygon fill="#828282" points="150.02,99.98 99.98,99.98 150.02,150.02 	"/>
	<polygon fill="#828282" points="150.02,150.02 99.98,150.02 99.98,199.95 100.1,199.95 	"/>
	<polygon fill="#828282" points="100.1,199.95 99.98,199.95 100.04,200.01 	"/>
	<polygon fill="#828282" points="250,150.02 250,99.98 200.07,99.98 200.01,100.04 	"/>
	<polygon fill="#828282" points="199.95,100.1 199.95,99.98 150.02,99.98 150.02,150.02 	"/>
	<polygon fill="#828282" points="200.01,100.04 199.95,99.98 199.95,100.1 	"/>
	<polygon fill="#828282" points="200.07,99.98 199.95,99.98 200.01,100.04 	"/>
	<polygon fill="#828282" points="300.05,399.9 349.98,349.98 300.05,349.98 	"/>
	<polygon fill="#828282" points="349.98,250 399.96,200.01 399.9,199.95 349.98,199.95 	"/>
	<polygon fill="#828282" points="300.05,349.98 349.98,349.98 300.05,300.05 	"/>
	<polygon fill="#828282" points="250,349.98 299.99,399.96 300.05,399.9 300.05,349.98 	"/>
	<polygon fill="#828282" points="200.07,300.05 250,349.98 250,300.05 	"/>
	<polygon fill="#828282" points="250,300.05 250,349.98 299.93,300.05 	"/>
	<polygon fill="#828282" points="300.05,300.05 299.93,300.05 250,349.98 300.05,349.98 	"/>
	<polygon fill="#828282" points="300.05,300.05 349.98,349.98 349.98,300.05 	"/>
	<polygon fill="#828282" points="300.05,299.93 349.98,250 300.05,250 	"/>
	<polygon fill="#828282" points="199.95,300.05 199.95,349.98 250,349.98 200.07,300.05 	"/>
	<polygon fill="#828282" points="300.05,199.95 300.05,200.07 349.98,250 349.98,199.95 	"/>
	<polygon fill="#828282" points="349.98,349.98 399.9,300.05 349.98,300.05 	"/>
	<polygon fill="#828282" points="300.05,300.05 349.98,300.05 349.98,250 300.05,299.93 	"/>
	<polygon fill="#828282" points="399.9,300.05 399.96,299.99 349.98,250 349.98,300.05 	"/>
	<polygon fill="#828282" points="300.05,250 349.98,250 300.05,200.07 	"/>
	<polygon fill="#828282" points="399.9,300.05 400.02,300.05 399.96,299.99 	"/>
	<polygon fill="#828282" points="400.02,300.05 400.02,299.93 399.96,299.99 	"/>
	<polygon fill="#828282" points="349.98,250 400.02,250 400.02,200.07 399.96,200.01 	"/>
	<polygon fill="#828282" points="399.96,299.99 400.02,299.93 400.02,250 349.98,250 	"/>
	<polygon fill="#828282" points="349.98,349.98 400.02,349.98 400.02,300.05 399.9,300.05 	"/>
	<polygon fill="#828282" points="349.98,400.02 400.02,400.02 349.98,349.98 	"/>
	<polygon fill="#828282" points="400.02,400.02 400.02,349.98 349.98,349.98 	"/>
	<polygon fill="#828282" points="400.02,99.98 350.1,50.05 349.98,50.05 349.98,99.98 	"/>
	<polygon fill="#828282" points="300.05,399.9 300.05,400.02 349.98,400.02 349.98,349.98 	"/>
	<polygon fill="#828282" points="349.98,150.02 400.02,99.98 349.98,99.98 	"/>
	<polygon fill="#828282" points="349.98,99.98 349.98,50.05 300.05,99.98 	"/>
	<polygon fill="#828282" points="399.9,199.95 400.02,199.95 400.02,150.02 349.98,150.02 	"/>
	<polygon fill="#828282" points="399.96,200.01 400.02,199.95 399.9,199.95 	"/>
	<polygon fill="#828282" points="400.02,200.07 400.02,199.95 399.96,200.01 	"/>
	<polygon fill="#828282" points="400.02,150.02 400.02,99.98 349.98,150.02 	"/>
	<polygon fill="#828282" points="99.98,349.98 99.98,400.02 150.02,349.98 	"/>
	<polygon fill="#828282" points="100.1,300.05 99.98,300.05 99.98,349.98 150.02,349.98 	"/>
	<polygon fill="#828282" points="99.98,199.95 99.98,200.07 100.04,200.01 	"/>
	<polygon fill="#828282" points="99.98,400.02 150.02,400.02 150.02,349.98 	"/>
	<polygon fill="#828282" points="100.04,299.99 99.98,300.05 100.1,300.05 	"/>
	<polygon fill="#828282" points="99.98,299.93 99.98,300.05 100.04,299.99 	"/>
	<polygon fill="#828282" points="100.04,200.01 99.98,200.07 99.98,250 150.02,250 	"/>
	<polygon fill="#828282" points="150.02,250 99.98,250 99.98,299.93 100.04,299.99 	"/>
	<polygon fill="#828282" points="200.01,399.96 200.07,400.02 250,400.02 250,349.98 	"/>
	<polygon fill="#828282" points="299.99,399.96 300.05,400.02 300.05,399.9 	"/>
	<polygon fill="#828282" points="250,349.98 250,400.02 299.93,400.02 299.99,399.96 	"/>
	<polygon fill="#828282" points="299.93,400.02 300.05,400.02 299.99,399.96 	"/>
	<polygon fill="#828282" points="150.02,349.98 150.02,400.02 199.95,400.02 199.95,399.9 	"/>
	<polygon fill="#828282" points="199.95,399.9 199.95,400.02 200.01,399.96 	"/>
	<polygon fill="#828282" points="199.95,400.02 200.07,400.02 200.01,399.96 	"/>
	<polygon fill="#828282" points="299.99,200.01 299.93,199.95 250,199.95 250,250 	"/>
	<polygon fill="#828282" points="150.02,49.93 149.96,49.99 150.02,50.05 	"/>
	<polygon fill="#828282" points="149.96,49.99 149.9,50.05 150.02,50.05 	"/>
	<polygon fill="#828282" points="49.99,49.99 50.05,50.05 50.05,49.93 	"/>
	<polygon fill="#828282" points="349.98,49.93 349.98,50.05 350.04,49.99 	"/>
	<polygon fill="#828282" points="49.93,150.02 50.05,150.02 49.99,149.96 	"/>
	<polygon fill="#828282" points="49.99,149.96 50.05,150.02 50.05,149.9 	"/>
	<polygon fill="#828282" points="49.93,50.05 50.05,50.05 49.99,49.99 	"/>
	<polygon fill="#828282" points="300.05,100.1 299.99,100.04 250,150.02 300.05,150.02 	"/>
	<polygon fill="#828282" points="250,250 250,199.95 200.07,199.95 200.01,200.01 	"/>
	<polygon fill="#828282" points="200.07,199.95 199.95,199.95 200.01,200.01 	"/>
	<polygon fill="#828282" points="199.95,199.95 199.95,200.07 200.01,200.01 	"/>
	<polygon fill="#828282" points="400.02,50.05 350.1,50.05 400.02,99.98 	"/>
	<polygon fill="#828282" points="200.01,200.01 199.95,200.07 199.95,250 250,250 	"/>
	<polygon fill="#828282" points="349.98,50.05 300.05,50.05 300.05,99.98 	"/>
	<polygon fill="#828282" points="49.99,350.04 50.05,350.1 50.05,349.98 	"/>
	<polygon fill="#828282" points="350.04,49.99 349.98,50.05 350.1,50.05 	"/>
	<polygon fill="#828282" points="450.07,349.98 449.95,349.98 450.01,350.04 	"/>
	<polygon fill="#828282" points="450.01,450.01 449.95,449.95 449.95,450.07 	"/>
	<polygon fill="#828282" points="450.07,449.95 449.95,449.95 450.01,450.01 	"/>
	<polygon fill="#828282" points="450.01,350.04 449.95,349.98 449.95,350.1 	"/>
	<polygon fill="#828282" points="450.07,50.05 450.01,49.99 449.95,50.05 	"/>
	<polygon fill="#828282" points="199.95,399.9 200.01,399.96 250,349.98 199.95,349.98 	"/>
	<polygon fill="#828282" points="450.01,149.96 449.95,149.9 449.95,150.02 	"/>
	<polygon fill="#828282" points="49.93,349.98 49.99,350.04 50.05,349.98 	"/>
	<polygon fill="#828282" points="50.05,450.07 50.05,449.95 49.99,450.01 	"/>
	<polygon fill="#828282" points="349.98,450.07 350.04,450.01 349.98,449.95 	"/>
	<polygon fill="#828282" points="149.96,450.01 150.02,449.95 149.9,449.95 	"/>
	<polygon fill="#828282" points="49.99,450.01 50.05,449.95 49.93,449.95 	"/>
	<polygon fill="#828282" points="150.02,450.07 150.02,449.95 149.96,450.01 	"/>
	<polygon fill="#828282" points="350.04,450.01 350.1,449.95 349.98,449.95 	"/>
	<polygon fill="#828282" points="450.07,150.02 450.01,149.96 449.95,150.02 	"/>
	<polygon fill="#828282" points="199.95,200.07 150.02,250 199.95,250 	"/>
	<polygon fill="#828282" points="100.1,199.95 100.04,200.01 150.02,250 150.02,199.95 	"/>
	<polygon fill="#828282" points="199.95,199.95 150.02,199.95 150.02,250 199.95,200.07 	"/>
	<polygon fill="#828282" points="150.02,150.02 100.1,199.95 150.02,199.95 	"/>
	<polygon fill="#828282" points="199.95,199.95 150.02,150.02 150.02,199.95 	"/>
	<polygon fill="#828282" points="199.95,100.1 150.02,150.02 199.95,150.02 	"/>
	<polygon fill="#828282" points="199.95,150.02 150.02,150.02 199.95,199.95 	"/>
	<polygon fill="#828282" points="199.95,300.05 150.02,349.98 199.95,349.98 	"/>
	<polygon fill="#828282" points="250,150.02 200.01,100.04 199.95,100.1 199.95,150.02 	"/>
	<polygon fill="#828282" points="150.02,300.05 150.02,349.98 199.95,300.05 	"/>
	<polygon fill="#828282" points="150.02,349.98 199.95,399.9 199.95,349.98 	"/>
	<polygon fill="#828282" points="150.02,250 100.04,299.99 100.1,300.05 150.02,300.05 	"/>
	<polygon fill="#828282" points="199.95,300.05 199.95,299.93 150.02,250 150.02,300.05 	"/>
	<polygon fill="#828282" points="100.1,300.05 150.02,349.98 150.02,300.05 	"/>
	<polygon fill="#828282" points="199.95,250 150.02,250 199.95,299.93 	"/>
	<polygon fill="#828282" points="199.95,300.05 200.07,300.05 200.01,299.99 	"/>
	<polygon fill="#828282" points="299.93,300.05 300.05,300.05 299.99,299.99 	"/>
	<polygon fill="#828282" points="299.99,299.99 300.05,299.93 300.05,250 250,250 	"/>
	<polygon fill="#828282" points="250,250 250,300.05 299.93,300.05 299.99,299.99 	"/>
	<polygon fill="#828282" points="300.05,300.05 300.05,299.93 299.99,299.99 	"/>
	<polygon fill="#828282" points="199.95,299.93 199.95,300.05 200.01,299.99 	"/>
	<polygon fill="#828282" points="250,250 199.95,250 199.95,299.93 200.01,299.99 	"/>
	<polygon fill="#828282" points="200.01,299.99 200.07,300.05 250,300.05 250,250 	"/>
	<polygon fill="#828282" points="299.99,200.01 300.05,199.95 299.93,199.95 	"/>
	<polygon fill="#828282" points="300.05,199.95 300.05,150.02 250,150.02 299.93,199.95 	"/>
	<polygon fill="#828282" points="250,250 300.05,250 300.05,200.07 299.99,200.01 	"/>
	<polygon fill="#828282" points="250,199.95 250,150.02 200.07,199.95 	"/>
	<polygon fill="#828282" points="299.93,199.95 250,150.02 250,199.95 	"/>
	<polygon fill="#828282" points="300.05,200.07 300.05,199.95 299.99,200.01 	"/>
	<polygon fill="#828282" points="199.95,199.95 200.07,199.95 250,150.02 199.95,150.02 	"/>
	<polygon fill="#828282" points="449.95,350.1 449.95,400.02 500,400.02 450.01,350.04 	"/>
	<polygon fill="#828282" points="50.05,349.98 50.05,300.05 0,300.05 49.93,349.98 	"/>
	<polygon fill="#828282" points="0,300.05 0,349.98 49.93,349.98 	"/>
	<polygon fill="#828282" points="49.93,349.98 0,349.98 0,400.02 49.99,350.04 	"/>
	<polygon fill="#828282" points="149.96,450.01 99.98,500 150.02,500 150.02,450.07 	"/>
	<polygon fill="#828282" points="50.05,199.95 0,199.95 50.05,250 	"/>
	<polygon fill="#828282" points="50.05,150.02 49.93,150.02 0,199.95 50.05,199.95 	"/>
	<polygon fill="#828282" points="0,199.95 0,250 50.05,250 	"/>
	<polygon fill="#828282" points="50.05,350.1 49.99,350.04 0,400.02 50.05,400.02 	"/>
	<polygon fill="#828282" points="50.05,500 99.98,500 50.05,450.07 	"/>
	<polygon fill="#828282" points="50.05,449.95 50.05,400.02 0,400.02 49.93,449.95 	"/>
	<polygon fill="#828282" points="149.9,449.95 99.98,449.95 99.98,500 149.96,450.01 	"/>
	<polygon fill="#828282" points="50.05,449.95 50.05,450.07 99.98,500 99.98,449.95 	"/>
	<polygon fill="#828282" points="49.99,450.01 0,500 50.05,500 50.05,450.07 	"/>
	<polygon fill="#828282" points="0,400.02 0,449.95 49.93,449.95 	"/>
	<polygon fill="#828282" points="49.93,449.95 0,449.95 0,500 49.99,450.01 	"/>
	<polygon fill="#828282" points="50.05,250 0.45,299.61 50.05,250 0,250 0,300.05 50.05,300.05 	"/>
	<polygon fill="#828282" points="149.9,50.05 149.96,49.99 99.98,0 99.98,50.05 	"/>
	<polygon fill="#828282" points="150.02,49.93 150.02,0 99.98,0 149.96,49.99 	"/>
	<polygon fill="#828282" points="50.05,50.05 99.98,50.05 99.98,0 50.05,49.93 	"/>
	<polygon fill="#828282" points="0,150.02 0,199.95 49.93,150.02 	"/>
	<polygon fill="#828282" points="250,50.05 199.95,0 199.95,50.05 	"/>
	<polygon fill="#828282" points="199.95,0 150.02,0 150.02,49.93 	"/>
	<polygon fill="#828282" points="150.02,50.05 199.95,50.05 199.95,0 150.02,49.93 	"/>
	<polygon fill="#828282" points="99.98,0 50.05,0 50.05,49.93 	"/>
	<polygon fill="#828282" points="50.05,49.93 50.05,0 0,0 49.99,49.99 	"/>
	<polygon fill="#828282" points="50.05,149.9 50.05,99.98 0,99.98 49.99,149.96 	"/>
	<polygon fill="#828282" points="49.99,149.96 0,99.98 0,150.02 49.93,150.02 	"/>
	<polygon fill="#828282" points="50.05,50.05 49.93,50.05 0,99.98 50.05,99.98 	"/>
	<polygon fill="#828282" points="49.99,49.99 0,0 0,50.05 49.93,50.05 	"/>
	<polygon fill="#828282" points="0,50.05 0,99.98 49.93,50.05 	"/>
	<polygon fill="#828282" points="150.02,500 199.95,500 150.02,450.07 	"/>
	<polygon fill="#828282" points="500,300.05 500,250 449.95,250 	"/>
	<polygon fill="#828282" points="500,250 500,199.95 449.95,250 	"/>
	<polygon fill="#828282" points="449.95,300.05 500,300.05 449.95,250 	"/>
	<polygon fill="#828282" points="500,349.98 500,300.05 450.07,349.98 	"/>
	<polygon fill="#828282" points="449.95,349.98 450.07,349.98 500,300.05 449.95,300.05 	"/>
	<polygon fill="#828282" points="450.01,350.04 500,400.02 500,349.98 450.07,349.98 	"/>
	<polygon fill="#828282" points="449.95,250 500,199.95 449.95,199.95 	"/>
	<polygon fill="#828282" points="449.95,50.05 449.95,99.98 500,99.98 450.07,50.05 	"/>
	<polygon fill="#828282" points="500,99.98 500,50.05 450.07,50.05 	"/>
	<polygon fill="#828282" points="450.01,49.99 450.07,50.05 500,50.05 500,0 	"/>
	<polygon fill="#828282" points="449.95,449.95 450.07,449.95 500,400.02 449.95,400.02 	"/>
	<polygon fill="#828282" points="449.95,150.02 449.95,199.95 500,199.95 450.07,150.02 	"/>
	<polygon fill="#828282" points="449.95,149.9 450.01,149.96 500,99.98 449.95,99.98 	"/>
	<polygon fill="#828282" points="500,199.95 500,150.02 450.07,150.02 	"/>
	<polygon fill="#828282" points="450.07,150.02 500,150.02 500,99.98 450.01,149.96 	"/>
	<polygon fill="#828282" points="150.02,449.95 150.02,450.07 199.95,500 199.95,449.95 	"/>
	<polygon fill="#828282" points="250,500 300.05,500 250,449.95 	"/>
	<polygon fill="#828282" points="250,449.95 300.05,500 300.05,449.95 	"/>
	<polygon fill="#828282" points="300.05,99.98 300.05,50.05 250,50.05 299.93,99.98 	"/>
	<polygon fill="#828282" points="349.98,449.95 300.05,449.95 300.05,500 349.98,450.07 	"/>
	<polygon fill="#828282" points="250,0 199.95,0 250,50.05 	"/>
	<polygon fill="#828282" points="199.95,500 250,500 250,449.95 	"/>
	<polygon fill="#828282" points="199.95,449.95 199.95,500 250,449.95 	"/>
	<polygon fill="#828282" points="450.01,450.01 500,500 500,449.95 450.07,449.95 	"/>
	<polygon fill="#828282" points="400.02,500 449.95,500 449.95,450.07 	"/>
	<polygon fill="#828282" points="449.95,450.07 449.95,500 500,500 450.01,450.01 	"/>
	<polygon fill="#828282" points="349.98,450.07 349.98,500 400.02,500 350.04,450.01 	"/>
	<polygon fill="#828282" points="500,449.95 500,400.02 450.07,449.95 	"/>
	<polygon fill="#828282" points="350.1,449.95 350.04,450.01 400.02,500 400.02,449.95 	"/>
	<polygon fill="#828282" points="449.95,449.95 400.02,449.95 400.02,500 449.95,450.07 	"/>
	<polygon fill="#828282" points="300.05,500 349.98,500 349.98,450.07 	"/>
	<polygon fill="#828282" points="99.98,349.98 50.05,349.98 50.05,350.1 99.98,400.02 	"/>
	<polygon fill="#828282" points="50.05,350.1 50.05,400.02 99.98,400.02 	"/>
	<polygon fill="#828282" points="99.98,300.05 50.05,349.98 99.98,349.98 	"/>
	<polygon fill="#828282" points="99.98,200.07 50.05,250 99.98,250 	"/>
	<polygon fill="#828282" points="50.05,400.02 50.05,449.95 99.98,400.02 	"/>
	<polygon fill="#828282" points="99.98,299.93 50.05,250 50.05,300.05 99.98,300.05 	"/>
	<polygon fill="#828282" points="50.05,300.05 50.05,349.98 99.98,300.05 	"/>
	<polygon fill="#828282" points="99.98,250 50.05,250 99.98,299.93 	"/>
	<polygon fill="#828282" points="300.05,0 250,0 250,50.05 	"/>
	<polygon fill="#828282" points="50.05,449.95 99.98,449.95 99.98,400.02 	"/>
	<polygon fill="#828282" points="150.02,449.95 199.95,449.95 199.95,400.02 	"/>
	<polygon fill="#828282" points="250,400.02 250,449.95 299.93,400.02 	"/>
	<polygon fill="#828282" points="99.98,449.95 149.9,449.95 99.98,400.02 	"/>
	<polygon fill="#828282" points="150.02,400.02 150.02,449.95 199.95,400.02 	"/>
	<polygon fill="#828282" points="99.98,400.02 149.9,449.95 150.02,449.95 150.02,400.02 	"/>
	<polygon fill="#828282" points="200.07,400.02 250,449.95 250,400.02 	"/>
	<polygon fill="#828282" points="199.95,99.98 150.02,50.05 150.02,99.98 	"/>
	<polygon fill="#828282" points="199.95,50.05 150.02,50.05 199.95,99.98 	"/>
	<polygon fill="#828282" points="150.02,99.98 150.02,50.05 149.9,50.05 99.98,99.98 	"/>
	<polygon fill="#828282" points="250,99.98 250,50.05 200.07,99.98 	"/>
	<polygon fill="#828282" points="299.93,99.98 250,50.05 250,99.98 	"/>
	<polygon fill="#828282" points="200.07,99.98 250,50.05 199.95,50.05 199.95,99.98 	"/>
	<polygon fill="#828282" points="149.9,50.05 99.98,50.05 99.98,99.98 	"/>
	<polygon fill="#828282" points="99.98,99.98 50.05,149.9 50.05,150.02 99.98,150.02 	"/>
	<polygon fill="#828282" points="99.98,199.95 50.05,199.95 50.05,250 99.98,200.07 	"/>
	<polygon fill="#828282" points="99.98,150.02 50.05,150.02 99.98,199.95 	"/>
	<polygon fill="#828282" points="50.05,150.02 50.05,199.95 99.98,199.95 	"/>
	<polygon fill="#828282" points="99.98,50.05 50.05,50.05 99.98,99.98 	"/>
	<polygon fill="#828282" points="50.05,99.98 50.05,149.9 99.98,99.98 	"/>
	<polygon fill="#828282" points="50.05,50.05 50.05,99.98 99.98,99.98 	"/>
	<polygon fill="#828282" points="199.95,400.02 199.95,449.95 250,449.95 200.07,400.02 	"/>
	<polygon fill="#828282" points="400.02,99.98 449.95,50.05 400.02,50.05 	"/>
	<polygon fill="#828282" points="449.95,50.05 450.01,49.99 449.95,49.93 	"/>
	<polygon fill="#828282" points="449.95,99.98 449.95,50.05 400.02,99.98 	"/>
	<polygon fill="#828282" points="299.93,400.02 250,449.95 300.05,449.95 300.05,400.02 	"/>
	<polygon fill="#828282" points="450.01,49.99 500,0 449.95,0 449.95,49.93 	"/>
	<polygon fill="#828282" points="400.02,150.02 449.95,150.02 449.95,149.9 400.02,99.98 	"/>
	<polygon fill="#828282" points="449.95,149.9 449.95,99.98 400.02,99.98 	"/>
	<polygon fill="#828282" points="300.05,50.05 300.05,0 250,50.05 	"/>
	<polygon fill="#828282" points="449.95,0 400.02,0 449.95,49.93 	"/>
	<polygon fill="#828282" points="349.98,0 300.05,0 349.98,49.93 	"/>
	<polygon fill="#828282" points="449.95,199.95 449.95,150.02 400.02,199.95 	"/>
	<polygon fill="#828282" points="349.98,50.05 349.98,49.93 300.05,0 300.05,50.05 	"/>
	<polygon fill="#828282" points="449.95,50.05 449.95,49.93 400.02,0 400.02,50.05 	"/>
	<polygon fill="#828282" points="350.04,49.99 400.02,0 349.98,0 349.98,49.93 	"/>
	<polygon fill="#828282" points="350.1,50.05 400.02,50.05 400.02,0 350.04,49.99 	"/>
	<polygon fill="#828282" points="400.02,199.95 449.95,150.02 400.02,150.02 	"/>
	<polygon fill="#828282" points="449.95,400.02 449.95,350.1 400.02,400.02 	"/>
	<polygon fill="#828282" points="449.95,449.95 449.95,400.02 400.02,400.02 	"/>
	<polygon fill="#828282" points="350.1,449.95 400.02,449.95 400.02,400.02 	"/>
	<polygon fill="#828282" points="400.02,449.95 449.95,449.95 400.02,400.02 	"/>
	<polygon fill="#828282" points="300.05,449.95 349.98,449.95 300.05,400.02 	"/>
	<polygon fill="#828282" points="349.98,400.02 349.98,449.95 350.1,449.95 400.02,400.02 	"/>
	<polygon fill="#828282" points="300.05,400.02 349.98,449.95 349.98,400.02 	"/>
	<polygon fill="#828282" points="400.02,300.05 449.95,300.05 449.95,250 400.02,299.93 	"/>
	<polygon fill="#828282" points="400.02,299.93 449.95,250 400.02,250 	"/>
	<polygon fill="#828282" points="400.02,400.02 449.95,350.1 449.95,349.98 400.02,349.98 	"/>
	<polygon fill="#828282" points="400.02,250 449.95,250 400.02,200.07 	"/>
	<polygon fill="#828282" points="400.02,200.07 449.95,250 449.95,199.95 400.02,199.95 	"/>
	<polygon fill="#828282" points="449.95,349.98 449.95,300.05 400.02,300.05 	"/>
	<polygon fill="#828282" points="400.02,349.98 449.95,349.98 400.02,300.05 	"/>
</g>
<g id="lines">
	<rect fill="none" stroke="#231F20" stroke-width="0.25" stroke-miterlimit="10" stroke-dasharray="5,2" width="500" height="500"/>
	
		<line fill="none" stroke="#231F20" stroke-width="0.25" stroke-miterlimit="10" stroke-dasharray="5,2" x1="0" y1="449.95" x2="500" y2="449.95"/>
	
		<line fill="none" stroke="#231F20" stroke-width="0.25" stroke-miterlimit="10" stroke-dasharray="5,2" x1="0" y1="400.02" x2="500" y2="400.02"/>
	
		<line fill="none" stroke="#231F20" stroke-width="0.25" stroke-miterlimit="10" stroke-dasharray="5,2" x1="0" y1="349.98" x2="500" y2="349.98"/>
	
		<line fill="none" stroke="#231F20" stroke-width="0.25" stroke-miterlimit="10" stroke-dasharray="5,2" x1="0" y1="300.05" x2="500" y2="300.05"/>
	<line fill="none" stroke="#231F20" stroke-miterlimit="10" stroke-dasharray="5,2" x1="-0.25" y1="250" x2="499.75" y2="250"/>
	
		<line fill="none" stroke="#231F20" stroke-width="0.25" stroke-miterlimit="10" stroke-dasharray="5,2" x1="0" y1="199.95" x2="500" y2="199.95"/>
	
		<line fill="none" stroke="#231F20" stroke-width="0.25" stroke-miterlimit="10" stroke-dasharray="5,2" x1="0" y1="150.02" x2="500" y2="150.02"/>
	
		<line fill="none" stroke="#231F20" stroke-width="0.25" stroke-miterlimit="10" stroke-dasharray="5,2" x1="0" y1="99.98" x2="500" y2="99.98"/>
	
		<line fill="none" stroke="#231F20" stroke-width="0.25" stroke-miterlimit="10" stroke-dasharray="5,2" x1="0" y1="50.05" x2="500" y2="50.05"/>
	
		<line fill="none" stroke="#231F20" stroke-width="0.25" stroke-miterlimit="10" stroke-dasharray="5,2" x1="449.95" y1="0" x2="449.95" y2="500"/>
	
		<line fill="none" stroke="#231F20" stroke-width="0.25" stroke-miterlimit="10" stroke-dasharray="5,2" x1="400.02" y1="0" x2="400.02" y2="500"/>
	
		<line fill="none" stroke="#231F20" stroke-width="0.25" stroke-miterlimit="10" stroke-dasharray="5,2" x1="349.98" y1="0" x2="349.98" y2="500"/>
	
		<line fill="none" stroke="#231F20" stroke-width="0.25" stroke-miterlimit="10" stroke-dasharray="5,2" x1="300.05" y1="0" x2="300.05" y2="500"/>
	<line fill="none" stroke="#231F20" stroke-miterlimit="10" stroke-dasharray="5,2" x1="249.75" y1="0" x2="249.75" y2="500"/>
	
		<line fill="none" stroke="#231F20" stroke-width="0.25" stroke-miterlimit="10" stroke-dasharray="5,2" x1="199.95" y1="0" x2="199.95" y2="500"/>
	
		<line fill="none" stroke="#231F20" stroke-width="0.25" stroke-miterlimit="10" stroke-dasharray="5,2" x1="150.02" y1="0" x2="150.02" y2="500"/>
	
		<line fill="none" stroke="#231F20" stroke-width="0.25" stroke-miterlimit="10" stroke-dasharray="5,2" x1="99.98" y1="0" x2="99.98" y2="500"/>
	
		<line fill="none" stroke="#231F20" stroke-width="0.25" stroke-miterlimit="10" stroke-dasharray="5,2" x1="50.05" y1="0" x2="50.05" y2="500"/>
	
		<line fill="none" stroke="#231F20" stroke-width="0.25" stroke-miterlimit="10" stroke-dasharray="5,2" x1="0" y1="0" x2="500" y2="500"/>
	
		<line fill="none" stroke="#231F20" stroke-width="0.25" stroke-miterlimit="10" stroke-dasharray="5,2" x1="99.98" y1="0" x2="500" y2="400.02"/>
	
		<line fill="none" stroke="#231F20" stroke-width="0.25" stroke-miterlimit="10" stroke-dasharray="5,2" x1="199.95" y1="0" x2="500" y2="300.05"/>
	
		<line fill="none" stroke="#231F20" stroke-width="0.25" stroke-miterlimit="10" stroke-dasharray="5,2" x1="300.05" y1="0" x2="500" y2="199.95"/>
	
		<line fill="none" stroke="#231F20" stroke-width="0.25" stroke-miterlimit="10" stroke-dasharray="5,2" x1="400.02" y1="0" x2="500" y2="99.98"/>
	
		<line fill="none" stroke="#231F20" stroke-width="0.25" stroke-miterlimit="10" stroke-dasharray="5,2" x1="0" y1="99.98" x2="400.02" y2="500"/>
	
		<line fill="none" stroke="#231F20" stroke-width="0.25" stroke-miterlimit="10" stroke-dasharray="5,2" x1="0" y1="199.95" x2="300.05" y2="500"/>
	
		<line fill="none" stroke="#231F20" stroke-width="0.25" stroke-miterlimit="10" stroke-dasharray="5,2" x1="0" y1="300.05" x2="199.95" y2="500"/>
	
		<line fill="none" stroke="#231F20" stroke-width="0.25" stroke-miterlimit="10" stroke-dasharray="5,2" x1="0" y1="400.02" x2="99.98" y2="500"/>
	
		<line fill="none" stroke="#231F20" stroke-width="0.25" stroke-miterlimit="10" stroke-dasharray="5,2" x1="500" y1="0" x2="0" y2="500"/>
	
		<line fill="none" stroke="#231F20" stroke-width="0.25" stroke-miterlimit="10" stroke-dasharray="5,2" x1="400.02" y1="0" x2="0" y2="400.02"/>
	
		<line fill="none" stroke="#231F20" stroke-width="0.25" stroke-miterlimit="10" stroke-dasharray="5,2" x1="300.05" y1="0" x2="0.45" y2="299.61"/>
	
		<line fill="none" stroke="#231F20" stroke-width="0.25" stroke-miterlimit="10" stroke-dasharray="5,2" x1="199.95" y1="0" x2="0" y2="199.95"/>
	
		<line fill="none" stroke="#231F20" stroke-width="0.25" stroke-miterlimit="10" stroke-dasharray="5,2" x1="99.98" y1="0" x2="0" y2="99.98"/>
	
		<line fill="none" stroke="#231F20" stroke-width="0.25" stroke-miterlimit="10" stroke-dasharray="5,2" x1="500" y1="99.98" x2="99.98" y2="500"/>
	
		<line fill="none" stroke="#231F20" stroke-width="0.25" stroke-miterlimit="10" stroke-dasharray="5,2" x1="500" y1="199.95" x2="199.95" y2="500"/>
	
		<line fill="none" stroke="#231F20" stroke-width="0.25" stroke-miterlimit="10" stroke-dasharray="5,2" x1="500" y1="300.05" x2="300.05" y2="500"/>
	
		<line fill="none" stroke="#231F20" stroke-width="0.25" stroke-miterlimit="10" stroke-dasharray="5,2" x1="500" y1="400.02" x2="400.02" y2="500"/>
</g>
</svg>
